<svg width="26" height="27" viewBox="0 0 26 27" fill="none" xmlns="http://www.w3.org/2000/svg">
<path d="M15.0008 16.4642L15.0009 16.4643L16.2734 17.7199L18.3088 15.6618H13.8566C13.7115 15.6618 13.5798 15.7208 13.4846 15.816C13.3882 15.9125 13.3292 16.0443 13.3292 16.1891V20.7813C13.3465 20.8286 13.356 20.8796 13.356 20.9326C13.356 20.9855 13.3465 21.0365 13.3292 21.0839V21.0994C13.3292 21.2434 13.3883 21.3752 13.4846 21.4716C13.5807 21.5677 13.7125 21.6268 13.8566 21.6268H18.7669C18.9112 21.6268 19.0432 21.5677 19.1393 21.4718C19.2352 21.3757 19.2943 21.2437 19.2943 21.0994V17.5011L16.602 20.2244C16.6019 20.2245 16.6018 20.2246 16.6017 20.2247C16.4317 20.3972 16.1533 20.3997 15.9804 20.2295L15.9803 20.2294L13.6023 17.8834L13.6022 17.8833L13.7075 17.7765C13.5937 17.6645 13.5921 17.4809 13.7041 17.3671L15.0008 16.4642ZM15.0008 16.4642C14.8278 16.294 14.5493 16.2965 14.3792 16.4693L15.0008 16.4642ZM19.9777 13.9743L19.9777 13.9743C20.1486 13.8017 20.4276 13.7998 20.6004 13.9709L21.3915 14.7526L19.9777 13.9743ZM19.9777 13.9743L19.1311 14.8302C19.1275 14.8292 19.1238 14.8282 19.1201 14.8273C19.0053 14.7973 18.8864 14.7811 18.7669 14.7811H16.9858C16.4631 13.9669 15.7484 13.2857 14.9078 12.8033C14.0323 12.3008 13.0186 12.0125 11.942 12.0125H9.84029C8.19285 12.0125 6.69517 12.687 5.60913 13.7728L5.60911 13.7728C4.52443 14.8577 3.85 16.3554 3.85 18.0028V19.6993C3.85 20.1601 4.03834 20.5791 4.34108 20.8818C4.64356 21.1843 5.0625 21.3729 5.52339 21.3729H12.4755C12.5308 21.6516 12.6687 21.901 12.8619 22.0943C13.1164 22.3488 13.4688 22.5074 13.8566 22.5074H18.7669C19.1538 22.5074 19.5059 22.3483 19.7615 22.093L19.7616 22.0929C20.0159 21.8383 20.1749 21.4862 20.1749 21.0994V16.6101L21.3964 15.3744L21.3967 15.3742M19.9777 13.9743L21.3967 15.3742M21.3967 15.3742C21.5668 15.2013 21.5643 14.9229 21.3917 14.7529L21.3967 15.3742ZM13.4512 10.3863L13.4513 10.3863C14.1059 9.73138 14.5115 8.82639 14.5115 7.82758C14.5115 6.82816 14.106 5.92244 13.4501 5.26769C12.7952 4.61303 11.8902 4.20742 10.8914 4.20742C9.89195 4.20742 8.98624 4.613 8.33153 5.26771C7.67681 5.92243 7.27123 6.82813 7.27123 7.82758C7.27123 8.81685 7.66916 9.71416 8.31319 10.3677L8.3272 10.3829L8.3271 10.383L8.33153 10.3874C8.98624 11.0422 9.89195 11.4477 10.8914 11.4477C11.8902 11.4477 12.7952 11.0421 13.4512 10.3863ZM15.9696 18.6548L15.9697 18.6549C16.1425 18.8249 16.4199 18.8223 16.5904 18.6518L16.591 18.6512L20.295 14.9056L20.4614 15.0698L16.2848 19.295L14.5321 17.5659L14.6967 17.3991L15.9696 18.6548ZM12.4486 16.1891V20.4922H5.52339C5.30617 20.4922 5.10786 20.4032 4.96378 20.2591C4.81951 20.1148 4.73065 19.9165 4.73065 19.6993V18.0028C4.73065 16.5979 5.30508 15.3202 6.23136 14.3939C7.15765 13.4676 8.43539 12.8932 9.84029 12.8932H11.942C12.8605 12.8932 13.7243 13.1387 14.4705 13.5668C15.0181 13.8811 15.503 14.2943 15.9006 14.7811H13.8566C13.4703 14.7811 13.1187 14.9396 12.8639 15.1936L12.8638 15.1937L12.862 15.1955L12.8618 15.1957C12.6074 15.4507 12.4486 15.8025 12.4486 16.1891ZM8.95423 9.76474L8.95428 9.76469L8.9507 9.76133L8.93851 9.74991C8.45195 9.25538 8.15188 8.57675 8.15188 7.82758C8.15188 7.07114 8.45862 6.38601 8.95423 5.89041C9.44983 5.39481 10.135 5.08807 10.8914 5.08807C11.6484 5.08807 12.3334 5.39441 12.8287 5.89014C13.3242 6.38599 13.6309 7.07115 13.6309 7.82758C13.6309 8.58454 13.3246 9.26965 12.829 9.7652C12.3335 10.2607 11.6484 10.5671 10.8914 10.5671C10.135 10.5671 9.44983 10.2603 8.95423 9.76474Z" fill="#818B9A" stroke="#818B9A" stroke-width="0.3"/>
</svg>
