<svg width="17" height="16" viewBox="0 0 17 16" fill="none" xmlns="http://www.w3.org/2000/svg">
<path d="M10.7604 12V12.5C10.7604 13.0304 10.5497 13.5391 10.1746 13.9142C9.79955 14.2893 9.29084 14.5 8.76041 14.5C8.22998 14.5 7.72127 14.2893 7.34619 13.9142C6.97112 13.5391 6.76041 13.0304 6.76041 12.5V12M14.1254 10.9822C13.3229 10 12.7563 9.5 12.7563 6.79219C12.7563 4.3125 11.4901 3.42906 10.4479 3C10.3095 2.94312 10.1792 2.8125 10.137 2.67031C9.95416 2.04812 9.44166 1.5 8.76041 1.5C8.07916 1.5 7.56635 2.04844 7.38541 2.67094C7.34322 2.81469 7.21291 2.94312 7.07447 3C6.03103 3.42969 4.76603 4.31 4.76603 6.79219C4.76447 9.5 4.19791 10 3.39541 10.9822C3.06291 11.3891 3.35416 12 3.93572 12H13.5882C14.1667 12 14.456 11.3872 14.1254 10.9822Z" stroke="#818B9A" stroke-width="0.948718" stroke-linecap="round" stroke-linejoin="round"/>
</svg>
