<svg width="24" height="25" viewBox="0 0 24 25" fill="none" xmlns="http://www.w3.org/2000/svg">
<mask id="path-1-outside-1_74_1533" maskUnits="userSpaceOnUse" x="3" y="3.35742" width="17" height="18" fill="black">
<rect fill="white" x="3" y="3.35742" width="17" height="18"/>
<path d="M13.8407 13.2873H14.5164C14.9009 13.2868 15.2125 12.9723 15.2129 12.5842V11.9097C15.2125 11.5215 14.9009 11.207 14.5164 11.2065H13.8407C13.4562 11.207 13.1446 11.5215 13.1441 11.9097V12.5842C13.1446 12.9723 13.4562 13.2868 13.8407 13.2873ZM13.6085 11.9097C13.6086 11.7803 13.7125 11.6754 13.8407 11.6753H14.5164C14.6446 11.6754 14.7484 11.7803 14.7486 11.9097V12.5842C14.7484 12.7136 14.6446 12.8184 14.5164 12.8185H13.8407C13.7125 12.8184 13.6086 12.7136 13.6085 12.5842V11.9097ZM16.4192 19.1021H17.0949C17.4794 19.1016 17.791 18.7871 17.7914 18.3989V17.7244C17.791 17.3363 17.4794 17.0217 17.0949 17.0213H16.4192C16.0347 17.0217 15.7231 17.3363 15.7227 17.7244V18.3989C15.7231 18.7871 16.0347 19.1016 16.4192 19.1021ZM16.187 17.7244C16.1872 17.595 16.291 17.4902 16.4192 17.49H17.0949C17.2231 17.4902 17.327 17.595 17.3271 17.7244V18.3989C17.327 18.5283 17.2231 18.6332 17.0949 18.6333H16.4192C16.291 18.6332 16.1872 18.5283 16.187 18.3989V17.7244ZM15.1221 14.1646C15.0148 14.0938 14.8709 14.1242 14.8007 14.2325L13.9292 15.5779L13.5485 15.153C13.4625 15.057 13.3157 15.0496 13.2206 15.1364C13.1255 15.2233 13.1181 15.3715 13.2042 15.4675L13.7867 16.1175C13.8307 16.1666 13.8933 16.1947 13.9589 16.1947C13.9649 16.1947 13.971 16.1944 13.977 16.194C14.0487 16.1883 14.1138 16.1494 14.1532 16.0886L15.1894 14.489C15.2596 14.3807 15.2295 14.2355 15.1221 14.1646ZM16.4192 13.2873H17.0949C17.4794 13.2868 17.791 12.9723 17.7914 12.5842V11.9097C17.791 11.5215 17.4794 11.207 17.0949 11.2065H16.4192C16.0347 11.207 15.7231 11.5215 15.7227 11.9097V12.5842C15.7231 12.9723 16.0347 13.2868 16.4192 13.2873ZM16.187 11.9097C16.1872 11.7803 16.291 11.6754 16.4192 11.6753H17.0949C17.2231 11.6754 17.327 11.7803 17.3271 11.9097V12.5842C17.327 12.7136 17.2231 12.8184 17.0949 12.8185H16.4192C16.291 12.8184 16.1872 12.7136 16.187 12.5842V11.9097ZM16.4192 16.1947H17.0949C17.4794 16.1942 17.791 15.8797 17.7914 15.4915V14.817C17.791 14.4289 17.4794 14.1144 17.0949 14.1139H16.4192C16.0347 14.1144 15.7231 14.4289 15.7227 14.817V15.4915C15.7231 15.8797 16.0347 16.1942 16.4192 16.1947ZM16.187 14.817C16.1872 14.6877 16.291 14.5828 16.4192 14.5827H17.0949C17.2231 14.5828 17.327 14.6877 17.3271 14.817V15.4915C17.327 15.6209 17.2231 15.7258 17.0949 15.7259H16.4192C16.291 15.7258 16.1872 15.6209 16.187 15.4915V14.817ZM11.2622 19.1021H11.9378C12.3223 19.1016 12.6339 18.7871 12.6344 18.3989V17.7244C12.6339 17.3363 12.3223 17.0217 11.9378 17.0213H11.2622C10.8777 17.0217 10.5661 17.3363 10.5656 17.7244V18.3989C10.5661 18.7871 10.8777 19.1016 11.2622 19.1021ZM11.03 17.7244C11.0301 17.595 11.134 17.4902 11.2622 17.4901H11.9378C12.066 17.4902 12.1699 17.595 12.17 17.7244V18.3989C12.1699 18.5283 12.066 18.6332 11.9378 18.6333H11.2622C11.134 18.6332 11.0301 18.5283 11.03 18.3989V17.7244ZM6.10509 16.1947H6.7808C7.16531 16.1942 7.4769 15.8797 7.47734 15.4915V14.817C7.4769 14.4289 7.16531 14.1144 6.7808 14.1139H6.10509C5.72059 14.1144 5.409 14.4289 5.40856 14.817V15.4915C5.409 15.8797 5.72059 16.1942 6.10509 16.1947ZM5.87291 14.817C5.87305 14.6877 5.97692 14.5828 6.10509 14.5827H6.7808C6.90897 14.5828 7.01284 14.6877 7.01298 14.817V15.4915C7.01284 15.6209 6.90897 15.7258 6.7808 15.7259H6.10509C5.97692 15.7258 5.87305 15.6209 5.87291 15.4915V14.817ZM6.10509 13.2873H6.7808C7.16531 13.2868 7.4769 12.9723 7.47734 12.5842V11.9097C7.4769 11.5215 7.16531 11.207 6.7808 11.2065H6.10509C5.72059 11.207 5.409 11.5215 5.40856 11.9097V12.5842C5.409 12.9723 5.72059 13.2868 6.10509 13.2873ZM5.87291 11.9097C5.87305 11.7803 5.97692 11.6754 6.10509 11.6753H6.7808C6.90897 11.6754 7.01284 11.7803 7.01298 11.9097V12.5842C7.01284 12.7136 6.90897 12.8184 6.7808 12.8185H6.10509C5.97692 12.8184 5.87305 12.7136 5.87291 12.5842V11.9097ZM6.10509 19.1021H6.7808C7.16531 19.1016 7.4769 18.7871 7.47734 18.3989V17.7244C7.4769 17.3363 7.16531 17.0217 6.7808 17.0213H6.10509C5.72059 17.0217 5.409 17.3363 5.40856 17.7244V18.3989C5.409 18.7871 5.72059 19.1016 6.10509 19.1021ZM5.87291 17.7244C5.87305 17.595 5.97692 17.4902 6.10509 17.49H6.7808C6.90897 17.4902 7.01284 17.595 7.01298 17.7244V18.3989C7.01284 18.5283 6.90897 18.6332 6.7808 18.6333H6.10509C5.97692 18.6332 5.87305 18.5283 5.87291 18.3989V17.7244ZM13.8407 19.102H14.5164C14.9009 19.1016 15.2125 18.7871 15.2129 18.3989V17.7244C15.2125 17.3363 14.9009 17.0217 14.5164 17.0213H13.8407C13.4562 17.0217 13.1446 17.3363 13.1441 17.7244V18.3989C13.1446 18.7871 13.4562 19.1016 13.8407 19.102ZM13.6085 17.7244C13.6086 17.595 13.7125 17.4902 13.8407 17.49H14.5164C14.6446 17.4902 14.7484 17.595 14.7486 17.7244V18.3989C14.7484 18.5283 14.6446 18.6332 14.5164 18.6333H13.8407C13.7125 18.6332 13.6086 18.5283 13.6085 18.3989V17.7244ZM8.68361 19.1021H9.35932C9.74383 19.1016 10.0554 18.7871 10.0559 18.3989V17.7244C10.0554 17.3363 9.74383 17.0217 9.35932 17.0213H8.68361C8.29911 17.0217 7.98752 17.3363 7.98708 17.7244V18.3989C7.98752 18.7871 8.29911 19.1016 8.68361 19.1021ZM8.45143 17.7244C8.45157 17.595 8.55544 17.4902 8.68361 17.4901H9.35932C9.48749 17.4902 9.59136 17.595 9.5915 17.7244V18.3989C9.59136 18.5283 9.48749 18.6332 9.35932 18.6333H8.68361C8.55544 18.6332 8.45157 18.5283 8.45143 18.3989V17.7244ZM17.7295 6.01367H17.5593V5.45117C17.5593 4.84711 17.0742 4.35742 16.4758 4.35742C15.8774 4.35742 15.3923 4.84711 15.3923 5.45117V6.01367H7.80774V5.45117C7.80774 4.84711 7.32264 4.35742 6.72424 4.35742C6.12584 4.35742 5.64074 4.84711 5.64074 5.45117V6.01367H5.47047C4.65874 6.0146 4.00092 6.67863 4 7.49805V18.873C4.00092 19.6925 4.65873 20.3565 5.47047 20.3574H17.7295C18.5413 20.3565 19.1991 19.6925 19.2 18.873V7.49805C19.1991 6.67863 18.5413 6.0146 17.7295 6.01367ZM15.8566 5.45117C15.8566 5.10599 16.1338 4.82617 16.4758 4.82617C16.8177 4.82617 17.0949 5.10599 17.0949 5.45117V7.66992C17.0949 8.0151 16.8177 8.29492 16.4758 8.29492C16.1338 8.29492 15.8566 8.0151 15.8566 7.66992V5.45117ZM6.10509 5.45117C6.10509 5.10599 6.38229 4.82617 6.72424 4.82617C7.06618 4.82617 7.34338 5.10599 7.34338 5.45117V7.66992C7.34338 8.0151 7.06618 8.29492 6.72424 8.29492C6.38229 8.29492 6.10509 8.0151 6.10509 7.66992V5.45117ZM18.7356 18.873C18.735 19.4337 18.2849 19.888 17.7295 19.8887H5.47047C4.91507 19.888 4.46498 19.4337 4.46436 18.873V10.4199H18.7356V18.873ZM18.7356 9.95117H4.46436V7.49805C4.46498 6.93739 4.91507 6.48305 5.47047 6.48242H5.64074V7.66992C5.64074 8.27398 6.12584 8.76367 6.72424 8.76367C7.32264 8.76367 7.80774 8.27398 7.80774 7.66992V6.48242H15.3923V7.66992C15.3923 8.27398 15.8774 8.76367 16.4758 8.76367C17.0742 8.76367 17.5593 8.27398 17.5593 7.66992V6.48242H17.7295C18.2849 6.48305 18.735 6.93739 18.7356 7.49805V9.95117ZM8.68361 16.1947H9.35932C9.74383 16.1942 10.0554 15.8797 10.0559 15.4915V14.817C10.0554 14.4289 9.74383 14.1144 9.35932 14.1139H8.68361C8.29911 14.1144 7.98752 14.4289 7.98708 14.817V15.4915C7.98752 15.8797 8.29911 16.1942 8.68361 16.1947ZM8.45143 14.817C8.45157 14.6877 8.55544 14.5828 8.68361 14.5827H9.35932C9.48749 14.5828 9.59136 14.6877 9.5915 14.817V15.4915C9.59136 15.6209 9.48749 15.7258 9.35932 15.7259H8.68361C8.55544 15.7258 8.45157 15.6209 8.45143 15.4915V14.817ZM11.2622 13.2873H11.9378C12.3223 13.2868 12.6339 12.9723 12.6344 12.5842V11.9097C12.6339 11.5215 12.3223 11.207 11.9378 11.2065H11.2622C10.8777 11.207 10.5661 11.5215 10.5656 11.9097V12.5842C10.5661 12.9723 10.8777 13.2868 11.2622 13.2873ZM11.03 11.9097C11.0301 11.7803 11.134 11.6754 11.2622 11.6753H11.9378C12.066 11.6754 12.1699 11.7803 12.17 11.9097V12.5842C12.1699 12.7136 12.066 12.8184 11.9378 12.8185H11.2622C11.134 12.8184 11.0301 12.7136 11.03 12.5842L11.03 11.9097ZM11.2622 16.1947H11.9378C12.3223 16.1942 12.6339 15.8797 12.6344 15.4915V14.817C12.6339 14.4289 12.3223 14.1144 11.9378 14.1139H11.2622C10.8777 14.1144 10.5661 14.4289 10.5656 14.817V15.4915C10.5661 15.8797 10.8777 16.1942 11.2622 16.1947ZM11.03 14.817C11.0301 14.6877 11.134 14.5828 11.2622 14.5827H11.9378C12.066 14.5828 12.1699 14.6877 12.17 14.817V15.4915C12.1699 15.6209 12.066 15.7258 11.9378 15.7259H11.2622C11.134 15.7258 11.0301 15.6209 11.03 15.4915L11.03 14.817ZM8.68361 13.2873H9.35932C9.74383 13.2868 10.0554 12.9723 10.0559 12.5842V11.9097C10.0554 11.5215 9.74383 11.207 9.35932 11.2065H8.68361C8.29911 11.207 7.98752 11.5215 7.98708 11.9097V12.5842C7.98752 12.9723 8.29911 13.2868 8.68361 13.2873ZM8.45143 11.9097C8.45157 11.7803 8.55544 11.6754 8.68361 11.6753H9.35932C9.48749 11.6754 9.59136 11.7803 9.5915 11.9097V12.5842C9.59136 12.7136 9.48749 12.8184 9.35932 12.8185H8.68361C8.55544 12.8184 8.45157 12.7136 8.45143 12.5842V11.9097Z"/>
</mask>
<path d="M13.8407 13.2873H14.5164C14.9009 13.2868 15.2125 12.9723 15.2129 12.5842V11.9097C15.2125 11.5215 14.9009 11.207 14.5164 11.2065H13.8407C13.4562 11.207 13.1446 11.5215 13.1441 11.9097V12.5842C13.1446 12.9723 13.4562 13.2868 13.8407 13.2873ZM13.6085 11.9097C13.6086 11.7803 13.7125 11.6754 13.8407 11.6753H14.5164C14.6446 11.6754 14.7484 11.7803 14.7486 11.9097V12.5842C14.7484 12.7136 14.6446 12.8184 14.5164 12.8185H13.8407C13.7125 12.8184 13.6086 12.7136 13.6085 12.5842V11.9097ZM16.4192 19.1021H17.0949C17.4794 19.1016 17.791 18.7871 17.7914 18.3989V17.7244C17.791 17.3363 17.4794 17.0217 17.0949 17.0213H16.4192C16.0347 17.0217 15.7231 17.3363 15.7227 17.7244V18.3989C15.7231 18.7871 16.0347 19.1016 16.4192 19.1021ZM16.187 17.7244C16.1872 17.595 16.291 17.4902 16.4192 17.49H17.0949C17.2231 17.4902 17.327 17.595 17.3271 17.7244V18.3989C17.327 18.5283 17.2231 18.6332 17.0949 18.6333H16.4192C16.291 18.6332 16.1872 18.5283 16.187 18.3989V17.7244ZM15.1221 14.1646C15.0148 14.0938 14.8709 14.1242 14.8007 14.2325L13.9292 15.5779L13.5485 15.153C13.4625 15.057 13.3157 15.0496 13.2206 15.1364C13.1255 15.2233 13.1181 15.3715 13.2042 15.4675L13.7867 16.1175C13.8307 16.1666 13.8933 16.1947 13.9589 16.1947C13.9649 16.1947 13.971 16.1944 13.977 16.194C14.0487 16.1883 14.1138 16.1494 14.1532 16.0886L15.1894 14.489C15.2596 14.3807 15.2295 14.2355 15.1221 14.1646ZM16.4192 13.2873H17.0949C17.4794 13.2868 17.791 12.9723 17.7914 12.5842V11.9097C17.791 11.5215 17.4794 11.207 17.0949 11.2065H16.4192C16.0347 11.207 15.7231 11.5215 15.7227 11.9097V12.5842C15.7231 12.9723 16.0347 13.2868 16.4192 13.2873ZM16.187 11.9097C16.1872 11.7803 16.291 11.6754 16.4192 11.6753H17.0949C17.2231 11.6754 17.327 11.7803 17.3271 11.9097V12.5842C17.327 12.7136 17.2231 12.8184 17.0949 12.8185H16.4192C16.291 12.8184 16.1872 12.7136 16.187 12.5842V11.9097ZM16.4192 16.1947H17.0949C17.4794 16.1942 17.791 15.8797 17.7914 15.4915V14.817C17.791 14.4289 17.4794 14.1144 17.0949 14.1139H16.4192C16.0347 14.1144 15.7231 14.4289 15.7227 14.817V15.4915C15.7231 15.8797 16.0347 16.1942 16.4192 16.1947ZM16.187 14.817C16.1872 14.6877 16.291 14.5828 16.4192 14.5827H17.0949C17.2231 14.5828 17.327 14.6877 17.3271 14.817V15.4915C17.327 15.6209 17.2231 15.7258 17.0949 15.7259H16.4192C16.291 15.7258 16.1872 15.6209 16.187 15.4915V14.817ZM11.2622 19.1021H11.9378C12.3223 19.1016 12.6339 18.7871 12.6344 18.3989V17.7244C12.6339 17.3363 12.3223 17.0217 11.9378 17.0213H11.2622C10.8777 17.0217 10.5661 17.3363 10.5656 17.7244V18.3989C10.5661 18.7871 10.8777 19.1016 11.2622 19.1021ZM11.03 17.7244C11.0301 17.595 11.134 17.4902 11.2622 17.4901H11.9378C12.066 17.4902 12.1699 17.595 12.17 17.7244V18.3989C12.1699 18.5283 12.066 18.6332 11.9378 18.6333H11.2622C11.134 18.6332 11.0301 18.5283 11.03 18.3989V17.7244ZM6.10509 16.1947H6.7808C7.16531 16.1942 7.4769 15.8797 7.47734 15.4915V14.817C7.4769 14.4289 7.16531 14.1144 6.7808 14.1139H6.10509C5.72059 14.1144 5.409 14.4289 5.40856 14.817V15.4915C5.409 15.8797 5.72059 16.1942 6.10509 16.1947ZM5.87291 14.817C5.87305 14.6877 5.97692 14.5828 6.10509 14.5827H6.7808C6.90897 14.5828 7.01284 14.6877 7.01298 14.817V15.4915C7.01284 15.6209 6.90897 15.7258 6.7808 15.7259H6.10509C5.97692 15.7258 5.87305 15.6209 5.87291 15.4915V14.817ZM6.10509 13.2873H6.7808C7.16531 13.2868 7.4769 12.9723 7.47734 12.5842V11.9097C7.4769 11.5215 7.16531 11.207 6.7808 11.2065H6.10509C5.72059 11.207 5.409 11.5215 5.40856 11.9097V12.5842C5.409 12.9723 5.72059 13.2868 6.10509 13.2873ZM5.87291 11.9097C5.87305 11.7803 5.97692 11.6754 6.10509 11.6753H6.7808C6.90897 11.6754 7.01284 11.7803 7.01298 11.9097V12.5842C7.01284 12.7136 6.90897 12.8184 6.7808 12.8185H6.10509C5.97692 12.8184 5.87305 12.7136 5.87291 12.5842V11.9097ZM6.10509 19.1021H6.7808C7.16531 19.1016 7.4769 18.7871 7.47734 18.3989V17.7244C7.4769 17.3363 7.16531 17.0217 6.7808 17.0213H6.10509C5.72059 17.0217 5.409 17.3363 5.40856 17.7244V18.3989C5.409 18.7871 5.72059 19.1016 6.10509 19.1021ZM5.87291 17.7244C5.87305 17.595 5.97692 17.4902 6.10509 17.49H6.7808C6.90897 17.4902 7.01284 17.595 7.01298 17.7244V18.3989C7.01284 18.5283 6.90897 18.6332 6.7808 18.6333H6.10509C5.97692 18.6332 5.87305 18.5283 5.87291 18.3989V17.7244ZM13.8407 19.102H14.5164C14.9009 19.1016 15.2125 18.7871 15.2129 18.3989V17.7244C15.2125 17.3363 14.9009 17.0217 14.5164 17.0213H13.8407C13.4562 17.0217 13.1446 17.3363 13.1441 17.7244V18.3989C13.1446 18.7871 13.4562 19.1016 13.8407 19.102ZM13.6085 17.7244C13.6086 17.595 13.7125 17.4902 13.8407 17.49H14.5164C14.6446 17.4902 14.7484 17.595 14.7486 17.7244V18.3989C14.7484 18.5283 14.6446 18.6332 14.5164 18.6333H13.8407C13.7125 18.6332 13.6086 18.5283 13.6085 18.3989V17.7244ZM8.68361 19.1021H9.35932C9.74383 19.1016 10.0554 18.7871 10.0559 18.3989V17.7244C10.0554 17.3363 9.74383 17.0217 9.35932 17.0213H8.68361C8.29911 17.0217 7.98752 17.3363 7.98708 17.7244V18.3989C7.98752 18.7871 8.29911 19.1016 8.68361 19.1021ZM8.45143 17.7244C8.45157 17.595 8.55544 17.4902 8.68361 17.4901H9.35932C9.48749 17.4902 9.59136 17.595 9.5915 17.7244V18.3989C9.59136 18.5283 9.48749 18.6332 9.35932 18.6333H8.68361C8.55544 18.6332 8.45157 18.5283 8.45143 18.3989V17.7244ZM17.7295 6.01367H17.5593V5.45117C17.5593 4.84711 17.0742 4.35742 16.4758 4.35742C15.8774 4.35742 15.3923 4.84711 15.3923 5.45117V6.01367H7.80774V5.45117C7.80774 4.84711 7.32264 4.35742 6.72424 4.35742C6.12584 4.35742 5.64074 4.84711 5.64074 5.45117V6.01367H5.47047C4.65874 6.0146 4.00092 6.67863 4 7.49805V18.873C4.00092 19.6925 4.65873 20.3565 5.47047 20.3574H17.7295C18.5413 20.3565 19.1991 19.6925 19.2 18.873V7.49805C19.1991 6.67863 18.5413 6.0146 17.7295 6.01367ZM15.8566 5.45117C15.8566 5.10599 16.1338 4.82617 16.4758 4.82617C16.8177 4.82617 17.0949 5.10599 17.0949 5.45117V7.66992C17.0949 8.0151 16.8177 8.29492 16.4758 8.29492C16.1338 8.29492 15.8566 8.0151 15.8566 7.66992V5.45117ZM6.10509 5.45117C6.10509 5.10599 6.38229 4.82617 6.72424 4.82617C7.06618 4.82617 7.34338 5.10599 7.34338 5.45117V7.66992C7.34338 8.0151 7.06618 8.29492 6.72424 8.29492C6.38229 8.29492 6.10509 8.0151 6.10509 7.66992V5.45117ZM18.7356 18.873C18.735 19.4337 18.2849 19.888 17.7295 19.8887H5.47047C4.91507 19.888 4.46498 19.4337 4.46436 18.873V10.4199H18.7356V18.873ZM18.7356 9.95117H4.46436V7.49805C4.46498 6.93739 4.91507 6.48305 5.47047 6.48242H5.64074V7.66992C5.64074 8.27398 6.12584 8.76367 6.72424 8.76367C7.32264 8.76367 7.80774 8.27398 7.80774 7.66992V6.48242H15.3923V7.66992C15.3923 8.27398 15.8774 8.76367 16.4758 8.76367C17.0742 8.76367 17.5593 8.27398 17.5593 7.66992V6.48242H17.7295C18.2849 6.48305 18.735 6.93739 18.7356 7.49805V9.95117ZM8.68361 16.1947H9.35932C9.74383 16.1942 10.0554 15.8797 10.0559 15.4915V14.817C10.0554 14.4289 9.74383 14.1144 9.35932 14.1139H8.68361C8.29911 14.1144 7.98752 14.4289 7.98708 14.817V15.4915C7.98752 15.8797 8.29911 16.1942 8.68361 16.1947ZM8.45143 14.817C8.45157 14.6877 8.55544 14.5828 8.68361 14.5827H9.35932C9.48749 14.5828 9.59136 14.6877 9.5915 14.817V15.4915C9.59136 15.6209 9.48749 15.7258 9.35932 15.7259H8.68361C8.55544 15.7258 8.45157 15.6209 8.45143 15.4915V14.817ZM11.2622 13.2873H11.9378C12.3223 13.2868 12.6339 12.9723 12.6344 12.5842V11.9097C12.6339 11.5215 12.3223 11.207 11.9378 11.2065H11.2622C10.8777 11.207 10.5661 11.5215 10.5656 11.9097V12.5842C10.5661 12.9723 10.8777 13.2868 11.2622 13.2873ZM11.03 11.9097C11.0301 11.7803 11.134 11.6754 11.2622 11.6753H11.9378C12.066 11.6754 12.1699 11.7803 12.17 11.9097V12.5842C12.1699 12.7136 12.066 12.8184 11.9378 12.8185H11.2622C11.134 12.8184 11.0301 12.7136 11.03 12.5842L11.03 11.9097ZM11.2622 16.1947H11.9378C12.3223 16.1942 12.6339 15.8797 12.6344 15.4915V14.817C12.6339 14.4289 12.3223 14.1144 11.9378 14.1139H11.2622C10.8777 14.1144 10.5661 14.4289 10.5656 14.817V15.4915C10.5661 15.8797 10.8777 16.1942 11.2622 16.1947ZM11.03 14.817C11.0301 14.6877 11.134 14.5828 11.2622 14.5827H11.9378C12.066 14.5828 12.1699 14.6877 12.17 14.817V15.4915C12.1699 15.6209 12.066 15.7258 11.9378 15.7259H11.2622C11.134 15.7258 11.0301 15.6209 11.03 15.4915L11.03 14.817ZM8.68361 13.2873H9.35932C9.74383 13.2868 10.0554 12.9723 10.0559 12.5842V11.9097C10.0554 11.5215 9.74383 11.207 9.35932 11.2065H8.68361C8.29911 11.207 7.98752 11.5215 7.98708 11.9097V12.5842C7.98752 12.9723 8.29911 13.2868 8.68361 13.2873ZM8.45143 11.9097C8.45157 11.7803 8.55544 11.6754 8.68361 11.6753H9.35932C9.48749 11.6754 9.59136 11.7803 9.5915 11.9097V12.5842C9.59136 12.7136 9.48749 12.8184 9.35932 12.8185H8.68361C8.55544 12.8184 8.45157 12.7136 8.45143 12.5842V11.9097Z" fill="#818B9A"/>
<path d="M13.8407 13.2873H14.5164C14.9009 13.2868 15.2125 12.9723 15.2129 12.5842V11.9097C15.2125 11.5215 14.9009 11.207 14.5164 11.2065H13.8407C13.4562 11.207 13.1446 11.5215 13.1441 11.9097V12.5842C13.1446 12.9723 13.4562 13.2868 13.8407 13.2873ZM13.6085 11.9097C13.6086 11.7803 13.7125 11.6754 13.8407 11.6753H14.5164C14.6446 11.6754 14.7484 11.7803 14.7486 11.9097V12.5842C14.7484 12.7136 14.6446 12.8184 14.5164 12.8185H13.8407C13.7125 12.8184 13.6086 12.7136 13.6085 12.5842V11.9097ZM16.4192 19.1021H17.0949C17.4794 19.1016 17.791 18.7871 17.7914 18.3989V17.7244C17.791 17.3363 17.4794 17.0217 17.0949 17.0213H16.4192C16.0347 17.0217 15.7231 17.3363 15.7227 17.7244V18.3989C15.7231 18.7871 16.0347 19.1016 16.4192 19.1021ZM16.187 17.7244C16.1872 17.595 16.291 17.4902 16.4192 17.49H17.0949C17.2231 17.4902 17.327 17.595 17.3271 17.7244V18.3989C17.327 18.5283 17.2231 18.6332 17.0949 18.6333H16.4192C16.291 18.6332 16.1872 18.5283 16.187 18.3989V17.7244ZM15.1221 14.1646C15.0148 14.0938 14.8709 14.1242 14.8007 14.2325L13.9292 15.5779L13.5485 15.153C13.4625 15.057 13.3157 15.0496 13.2206 15.1364C13.1255 15.2233 13.1181 15.3715 13.2042 15.4675L13.7867 16.1175C13.8307 16.1666 13.8933 16.1947 13.9589 16.1947C13.9649 16.1947 13.971 16.1944 13.977 16.194C14.0487 16.1883 14.1138 16.1494 14.1532 16.0886L15.1894 14.489C15.2596 14.3807 15.2295 14.2355 15.1221 14.1646ZM16.4192 13.2873H17.0949C17.4794 13.2868 17.791 12.9723 17.7914 12.5842V11.9097C17.791 11.5215 17.4794 11.207 17.0949 11.2065H16.4192C16.0347 11.207 15.7231 11.5215 15.7227 11.9097V12.5842C15.7231 12.9723 16.0347 13.2868 16.4192 13.2873ZM16.187 11.9097C16.1872 11.7803 16.291 11.6754 16.4192 11.6753H17.0949C17.2231 11.6754 17.327 11.7803 17.3271 11.9097V12.5842C17.327 12.7136 17.2231 12.8184 17.0949 12.8185H16.4192C16.291 12.8184 16.1872 12.7136 16.187 12.5842V11.9097ZM16.4192 16.1947H17.0949C17.4794 16.1942 17.791 15.8797 17.7914 15.4915V14.817C17.791 14.4289 17.4794 14.1144 17.0949 14.1139H16.4192C16.0347 14.1144 15.7231 14.4289 15.7227 14.817V15.4915C15.7231 15.8797 16.0347 16.1942 16.4192 16.1947ZM16.187 14.817C16.1872 14.6877 16.291 14.5828 16.4192 14.5827H17.0949C17.2231 14.5828 17.327 14.6877 17.3271 14.817V15.4915C17.327 15.6209 17.2231 15.7258 17.0949 15.7259H16.4192C16.291 15.7258 16.1872 15.6209 16.187 15.4915V14.817ZM11.2622 19.1021H11.9378C12.3223 19.1016 12.6339 18.7871 12.6344 18.3989V17.7244C12.6339 17.3363 12.3223 17.0217 11.9378 17.0213H11.2622C10.8777 17.0217 10.5661 17.3363 10.5656 17.7244V18.3989C10.5661 18.7871 10.8777 19.1016 11.2622 19.1021ZM11.03 17.7244C11.0301 17.595 11.134 17.4902 11.2622 17.4901H11.9378C12.066 17.4902 12.1699 17.595 12.17 17.7244V18.3989C12.1699 18.5283 12.066 18.6332 11.9378 18.6333H11.2622C11.134 18.6332 11.0301 18.5283 11.03 18.3989V17.7244ZM6.10509 16.1947H6.7808C7.16531 16.1942 7.4769 15.8797 7.47734 15.4915V14.817C7.4769 14.4289 7.16531 14.1144 6.7808 14.1139H6.10509C5.72059 14.1144 5.409 14.4289 5.40856 14.817V15.4915C5.409 15.8797 5.72059 16.1942 6.10509 16.1947ZM5.87291 14.817C5.87305 14.6877 5.97692 14.5828 6.10509 14.5827H6.7808C6.90897 14.5828 7.01284 14.6877 7.01298 14.817V15.4915C7.01284 15.6209 6.90897 15.7258 6.7808 15.7259H6.10509C5.97692 15.7258 5.87305 15.6209 5.87291 15.4915V14.817ZM6.10509 13.2873H6.7808C7.16531 13.2868 7.4769 12.9723 7.47734 12.5842V11.9097C7.4769 11.5215 7.16531 11.207 6.7808 11.2065H6.10509C5.72059 11.207 5.409 11.5215 5.40856 11.9097V12.5842C5.409 12.9723 5.72059 13.2868 6.10509 13.2873ZM5.87291 11.9097C5.87305 11.7803 5.97692 11.6754 6.10509 11.6753H6.7808C6.90897 11.6754 7.01284 11.7803 7.01298 11.9097V12.5842C7.01284 12.7136 6.90897 12.8184 6.7808 12.8185H6.10509C5.97692 12.8184 5.87305 12.7136 5.87291 12.5842V11.9097ZM6.10509 19.1021H6.7808C7.16531 19.1016 7.4769 18.7871 7.47734 18.3989V17.7244C7.4769 17.3363 7.16531 17.0217 6.7808 17.0213H6.10509C5.72059 17.0217 5.409 17.3363 5.40856 17.7244V18.3989C5.409 18.7871 5.72059 19.1016 6.10509 19.1021ZM5.87291 17.7244C5.87305 17.595 5.97692 17.4902 6.10509 17.49H6.7808C6.90897 17.4902 7.01284 17.595 7.01298 17.7244V18.3989C7.01284 18.5283 6.90897 18.6332 6.7808 18.6333H6.10509C5.97692 18.6332 5.87305 18.5283 5.87291 18.3989V17.7244ZM13.8407 19.102H14.5164C14.9009 19.1016 15.2125 18.7871 15.2129 18.3989V17.7244C15.2125 17.3363 14.9009 17.0217 14.5164 17.0213H13.8407C13.4562 17.0217 13.1446 17.3363 13.1441 17.7244V18.3989C13.1446 18.7871 13.4562 19.1016 13.8407 19.102ZM13.6085 17.7244C13.6086 17.595 13.7125 17.4902 13.8407 17.49H14.5164C14.6446 17.4902 14.7484 17.595 14.7486 17.7244V18.3989C14.7484 18.5283 14.6446 18.6332 14.5164 18.6333H13.8407C13.7125 18.6332 13.6086 18.5283 13.6085 18.3989V17.7244ZM8.68361 19.1021H9.35932C9.74383 19.1016 10.0554 18.7871 10.0559 18.3989V17.7244C10.0554 17.3363 9.74383 17.0217 9.35932 17.0213H8.68361C8.29911 17.0217 7.98752 17.3363 7.98708 17.7244V18.3989C7.98752 18.7871 8.29911 19.1016 8.68361 19.1021ZM8.45143 17.7244C8.45157 17.595 8.55544 17.4902 8.68361 17.4901H9.35932C9.48749 17.4902 9.59136 17.595 9.5915 17.7244V18.3989C9.59136 18.5283 9.48749 18.6332 9.35932 18.6333H8.68361C8.55544 18.6332 8.45157 18.5283 8.45143 18.3989V17.7244ZM17.7295 6.01367H17.5593V5.45117C17.5593 4.84711 17.0742 4.35742 16.4758 4.35742C15.8774 4.35742 15.3923 4.84711 15.3923 5.45117V6.01367H7.80774V5.45117C7.80774 4.84711 7.32264 4.35742 6.72424 4.35742C6.12584 4.35742 5.64074 4.84711 5.64074 5.45117V6.01367H5.47047C4.65874 6.0146 4.00092 6.67863 4 7.49805V18.873C4.00092 19.6925 4.65873 20.3565 5.47047 20.3574H17.7295C18.5413 20.3565 19.1991 19.6925 19.2 18.873V7.49805C19.1991 6.67863 18.5413 6.0146 17.7295 6.01367ZM15.8566 5.45117C15.8566 5.10599 16.1338 4.82617 16.4758 4.82617C16.8177 4.82617 17.0949 5.10599 17.0949 5.45117V7.66992C17.0949 8.0151 16.8177 8.29492 16.4758 8.29492C16.1338 8.29492 15.8566 8.0151 15.8566 7.66992V5.45117ZM6.10509 5.45117C6.10509 5.10599 6.38229 4.82617 6.72424 4.82617C7.06618 4.82617 7.34338 5.10599 7.34338 5.45117V7.66992C7.34338 8.0151 7.06618 8.29492 6.72424 8.29492C6.38229 8.29492 6.10509 8.0151 6.10509 7.66992V5.45117ZM18.7356 18.873C18.735 19.4337 18.2849 19.888 17.7295 19.8887H5.47047C4.91507 19.888 4.46498 19.4337 4.46436 18.873V10.4199H18.7356V18.873ZM18.7356 9.95117H4.46436V7.49805C4.46498 6.93739 4.91507 6.48305 5.47047 6.48242H5.64074V7.66992C5.64074 8.27398 6.12584 8.76367 6.72424 8.76367C7.32264 8.76367 7.80774 8.27398 7.80774 7.66992V6.48242H15.3923V7.66992C15.3923 8.27398 15.8774 8.76367 16.4758 8.76367C17.0742 8.76367 17.5593 8.27398 17.5593 7.66992V6.48242H17.7295C18.2849 6.48305 18.735 6.93739 18.7356 7.49805V9.95117ZM8.68361 16.1947H9.35932C9.74383 16.1942 10.0554 15.8797 10.0559 15.4915V14.817C10.0554 14.4289 9.74383 14.1144 9.35932 14.1139H8.68361C8.29911 14.1144 7.98752 14.4289 7.98708 14.817V15.4915C7.98752 15.8797 8.29911 16.1942 8.68361 16.1947ZM8.45143 14.817C8.45157 14.6877 8.55544 14.5828 8.68361 14.5827H9.35932C9.48749 14.5828 9.59136 14.6877 9.5915 14.817V15.4915C9.59136 15.6209 9.48749 15.7258 9.35932 15.7259H8.68361C8.55544 15.7258 8.45157 15.6209 8.45143 15.4915V14.817ZM11.2622 13.2873H11.9378C12.3223 13.2868 12.6339 12.9723 12.6344 12.5842V11.9097C12.6339 11.5215 12.3223 11.207 11.9378 11.2065H11.2622C10.8777 11.207 10.5661 11.5215 10.5656 11.9097V12.5842C10.5661 12.9723 10.8777 13.2868 11.2622 13.2873ZM11.03 11.9097C11.0301 11.7803 11.134 11.6754 11.2622 11.6753H11.9378C12.066 11.6754 12.1699 11.7803 12.17 11.9097V12.5842C12.1699 12.7136 12.066 12.8184 11.9378 12.8185H11.2622C11.134 12.8184 11.0301 12.7136 11.03 12.5842L11.03 11.9097ZM11.2622 16.1947H11.9378C12.3223 16.1942 12.6339 15.8797 12.6344 15.4915V14.817C12.6339 14.4289 12.3223 14.1144 11.9378 14.1139H11.2622C10.8777 14.1144 10.5661 14.4289 10.5656 14.817V15.4915C10.5661 15.8797 10.8777 16.1942 11.2622 16.1947ZM11.03 14.817C11.0301 14.6877 11.134 14.5828 11.2622 14.5827H11.9378C12.066 14.5828 12.1699 14.6877 12.17 14.817V15.4915C12.1699 15.6209 12.066 15.7258 11.9378 15.7259H11.2622C11.134 15.7258 11.0301 15.6209 11.03 15.4915L11.03 14.817ZM8.68361 13.2873H9.35932C9.74383 13.2868 10.0554 12.9723 10.0559 12.5842V11.9097C10.0554 11.5215 9.74383 11.207 9.35932 11.2065H8.68361C8.29911 11.207 7.98752 11.5215 7.98708 11.9097V12.5842C7.98752 12.9723 8.29911 13.2868 8.68361 13.2873ZM8.45143 11.9097C8.45157 11.7803 8.55544 11.6754 8.68361 11.6753H9.35932C9.48749 11.6754 9.59136 11.7803 9.5915 11.9097V12.5842C9.59136 12.7136 9.48749 12.8184 9.35932 12.8185H8.68361C8.55544 12.8184 8.45157 12.7136 8.45143 12.5842V11.9097Z" stroke="#818B9A" stroke-width="0.4" mask="url(#path-1-outside-1_74_1533)"/>
</svg>
