<svg width="27" height="25" viewBox="0 0 27 25" fill="none" xmlns="http://www.w3.org/2000/svg">
<path d="M21.185 9.09845C20.8576 9.09826 20.5924 8.83302 20.5926 8.50566C20.5926 8.17849 20.8578 7.91325 21.185 7.91306M21.185 9.09845C21.5193 9.09845 21.7778 9.35653 21.7778 9.69086V9.78366V10.2837H21.2778H21.1854C20.858 10.2835 20.5926 10.5487 20.5926 10.8761C20.5926 11.2034 20.858 11.4687 21.1854 11.4685H21.2778H21.7778V11.9685V12.7465V13.2465H21.2778H21.1854C20.858 13.2463 20.5926 13.5117 20.5926 13.8391C20.5924 14.1664 20.8578 14.4319 21.1854 14.4317H21.2778H21.7778V14.9317V18.5799C21.7778 18.9142 21.5193 19.1727 21.185 19.1727H8.74075C8.40643 19.1727 8.14796 18.9142 8.14796 18.5799V17.9875C8.14814 17.6601 7.88292 17.3947 7.55556 17.3947C7.2282 17.3945 6.96277 17.6601 6.96277 17.9875V18.5799C6.96277 19.5546 7.76603 20.3575 8.74075 20.3575H21.185C22.1599 20.3575 22.963 19.5546 22.963 18.5799V9.69086C22.963 8.71613 22.1599 7.91306 21.185 7.91306M21.185 9.09845V8.59845C21.1851 8.59845 21.1852 8.59845 21.1853 8.59845M21.185 9.09845L21.1853 8.59845M21.185 7.91306V8.41306C21.1851 8.41306 21.1852 8.41306 21.1853 8.41306M21.185 7.91306L21.1853 8.41306M21.1853 8.41306C21.884 8.41322 22.463 8.9924 22.463 9.69086V9.70822V9.72558V9.74294V9.7603V9.77766V9.79503V9.81239V9.82975V9.84711V9.86447V9.88183V9.89919V9.91656V9.93392V9.95128V9.96864V9.986V10.0034V10.0207V10.0381V10.0554V10.0728V10.0902V10.1075V10.1249V10.1423V10.1596V10.177V10.1943V10.2117V10.2291V10.2464V10.2638V10.2811V10.2985V10.3159V10.3332V10.3506V10.3679V10.3853V10.4027V10.42V10.4374V10.4548V10.4721V10.4895V10.5068V10.5242V10.5416V10.5589V10.5763V10.5936V10.611V10.6284V10.6457V10.6631V10.6805V10.6978V10.7152V10.7325V10.7499V10.7673V10.7846V10.802V10.8193V10.8367V10.8541V10.8714V10.8888V10.9062V10.9235V10.9409V10.9582V10.9756V10.993V11.0103V11.0277V11.045V11.0624V11.0798V11.0971V11.1145V11.1318V11.1492V11.1666V11.1839V11.2013V11.2187V11.236V11.2534V11.2707V11.2881V11.3055V11.3228V11.3402V11.3575V11.3749V11.3923V11.4096V11.427V11.4444V11.4617V11.4791V11.4964V11.5138V11.5312V11.5485V11.5659V11.5832V11.6006V11.618V11.6353V11.6527V11.67V11.6874V11.7048V11.7221V11.7395V11.7569V11.7742V11.7916V11.8089V11.8263V11.8437V11.861V11.8784V11.8957V11.9131V11.9305V11.9478V11.9652V11.9826V11.9999V12.0173V12.0346V12.052V12.0694V12.0867V12.1041V12.1214V12.1388V12.1562V12.1735V12.1909V12.2083V12.2256V12.243V12.2603V12.2777V12.2951V12.3124V12.3298V12.3471V12.3645V12.3819V12.3992V12.4166V12.4339V12.4513V12.4687V12.486V12.5034V12.5208V12.5381V12.5555V12.5728V12.5902V12.6076V12.6249V12.6423V12.6596V12.677V12.6944V12.7117V12.7291V12.7465V12.7638V12.7812V12.7985V12.8159V12.8333V12.8506V12.868V12.8853V12.9027V12.9201V12.9374V12.9548V12.9721V12.9895V13.0069V13.0242V13.0416V13.059V13.0763V13.0937V13.111V13.1284V13.1458V13.1631V13.1805V13.1978V13.2152V13.2326V13.2499V13.2673V13.2847V13.302V13.3194V13.3367V13.3541V13.3715V13.3888V13.4062V13.4235V13.4409V13.4583V13.4756V13.493V13.5104V13.5277V13.5451V13.5624V13.5798V13.5972V13.6145V13.6319V13.6492V13.6666V13.684V13.7013V13.7187V13.736V13.7534V13.7708V13.7881V13.8055V13.8229V13.8402V13.8576V13.8749V13.8923V13.9097V13.927V13.9444V13.9617V13.9791V13.9965V14.0138V14.0312V14.0486V14.0659V14.0833V14.1006V14.118V14.1354V14.1527V14.1701V14.1874V14.2048V14.2222V14.2395V14.2569V14.2742V14.2916V14.309V14.3263V14.3437V14.3611V14.3784V14.3958V14.4131V14.4305V14.4479V14.4652V14.4826V14.4999V14.5173V14.5347V14.552V14.5694V14.5868V14.6041V14.6215V14.6388V14.6562V14.6736V14.6909V14.7083V14.7256V14.743V14.7604V14.7777V14.7951V14.8125V14.8298V14.8472V14.8645V14.8819V14.8993V14.9166V14.934V14.9513V14.9687V14.9861V15.0034V15.0208V15.0381V15.0555V15.0729V15.0902V15.1076V15.125V15.1423V15.1597V15.177V15.1944V15.2118V15.2291V15.2465V15.2638V15.2812V15.2986V15.3159V15.3333V15.3507V15.368V15.3854V15.4027V15.4201V15.4375V15.4548V15.4722V15.4895V15.5069V15.5243V15.5416V15.559V15.5763V15.5937V15.6111V15.6284V15.6458V15.6632V15.6805V15.6979V15.7152V15.7326V15.75V15.7673V15.7847V15.802V15.8194V15.8368V15.8541V15.8715V15.8889V15.9062V15.9236V15.9409V15.9583V15.9757V15.993V16.0104V16.0277V16.0451V16.0625V16.0798V16.0972V16.1146V16.1319V16.1493V16.1666V16.184V16.2014V16.2187V16.2361V16.2534V16.2708V16.2882V16.3055V16.3229V16.3402V16.3576V16.375V16.3923V16.4097V16.4271V16.4444V16.4618V16.4791V16.4965V16.5139V16.5312V16.5486V16.5659V16.5833V16.6007V16.618V16.6354V16.6528V16.6701V16.6875V16.7048V16.7222V16.7396V16.7569V16.7743V16.7916V16.809V16.8264V16.8437V16.8611V16.8784V16.8958V16.9132V16.9305V16.9479V16.9653V16.9826V17V17.0173V17.0347V17.0521V17.0694V17.0868V17.1041V17.1215V17.1389V17.1562V17.1736V17.191V17.2083V17.2257V17.243V17.2604V17.2778V17.2951V17.3125V17.3298V17.3472V17.3646V17.3819V17.3993V17.4167V17.434V17.4514V17.4687V17.4861V17.5035V17.5208V17.5382V17.5555V17.5729V17.5903V17.6076V17.625V17.6423V17.6597V17.6771V17.6944V17.7118V17.7292V17.7465V17.7639V17.7812V17.7986V17.816V17.8333V17.8507V17.868V17.8854V17.9028V17.9201V17.9375V17.9549V17.9722V17.9896V18.0069V18.0243V18.0417V18.059V18.0764V18.0937V18.1111V18.1285V18.1458V18.1632V18.1805V18.1979V18.2153V18.2326V18.25V18.2674V18.2847V18.3021V18.3194V18.3368V18.3542V18.3715V18.3889V18.4062V18.4236V18.441V18.4583V18.4757V18.4931V18.5104V18.5278V18.5451V18.5625V18.5799C22.463 19.2783 21.8839 19.8575 21.185 19.8575H8.74075C8.04204 19.8575 7.46277 19.2783 7.46277 18.5799V17.9875C7.46277 17.936 7.50455 17.8946 7.55528 17.8947H7.55556C7.60659 17.8947 7.64799 17.936 7.64796 17.9872V17.9875V18.5799C7.64796 19.1903 8.13028 19.6727 8.74075 19.6727H21.185C21.7955 19.6727 22.2778 19.1903 22.2778 18.5799V14.4317V13.9317H21.7778H21.1854H21.1851C21.1338 13.9317 21.0926 13.8903 21.0926 13.8393V13.8391C21.0926 13.7878 21.1342 13.7464 21.1851 13.7465H21.1854H21.7778H22.2778V13.2465V11.4685V10.9685H21.7778H21.1854H21.1851C21.134 10.9685 21.0926 10.9271 21.0926 10.8761C21.0926 10.825 21.134 10.7836 21.1851 10.7837H21.1854H21.7778H22.2778V10.2837V9.69086C22.2778 9.08006 21.7952 8.59861 21.1853 8.59845M21.1853 8.41306C21.134 8.41309 21.0926 8.45469 21.0926 8.50566V8.50594C21.0926 8.55685 21.1338 8.59842 21.1853 8.59845M10.3957 14.2582L10.7495 13.9049C10.7317 13.887 10.722 13.8633 10.722 13.839C10.722 13.8145 10.7318 13.791 10.7491 13.7737L10.7494 13.7734C10.7666 13.7562 10.79 13.7464 10.8148 13.7464H12.8886C12.94 13.7464 12.9813 13.7879 12.9813 13.839C12.9813 13.8637 12.9714 13.8873 12.9543 13.9044C12.9368 13.9219 12.9133 13.9316 12.8889 13.9316H10.8148C10.7898 13.9316 10.7663 13.9217 10.7492 13.9046L10.3957 14.2582ZM10.3957 14.2582C10.5068 14.3693 10.6576 14.4316 10.8148 14.4316H12.8889C13.0461 14.4316 13.1968 14.3691 13.3079 14.258C13.419 14.1468 13.4813 13.996 13.4813 13.839C13.4813 13.5116 13.2161 13.2466 12.8889 13.2464H10.8148C10.6576 13.2464 10.507 13.3087 10.3959 13.4198C10.2846 13.5309 10.222 13.6818 10.222 13.839C10.222 13.9962 10.2846 14.1468 10.3957 14.2582ZM5.18519 8.59842H4.68519V9.09842V15.0242C4.68519 15.6345 5.16697 16.1168 5.77758 16.1168H18.222C18.8321 16.1168 19.315 15.6351 19.315 15.0242V9.09842V8.59842H18.815H5.18519ZM18.815 8.41302H19.315V7.91302V6.13522C19.315 5.52432 18.8321 5.04262 18.222 5.04262H5.77758C5.16697 5.04262 4.68519 5.52495 4.68519 6.13522V7.91302V8.41302H5.18519H18.815ZM4.5 6.13522C4.5 5.4364 5.07905 4.85742 5.77758 4.85742H18.222C18.9209 4.85742 19.5002 5.43658 19.5002 6.13522V6.15258V6.16995V6.18731V6.20467V6.22203V6.23939V6.25675V6.27411V6.29147V6.30884V6.3262V6.34356V6.36092V6.37828V6.39564V6.413V6.43037V6.44773V6.46509V6.48245V6.49981V6.51717V6.53453V6.55189V6.56926V6.58662V6.60398V6.62134V6.6387V6.65606V6.67342V6.69078V6.70815V6.72551V6.74287V6.76023V6.77759V6.79495V6.81231V6.82968V6.84704V6.8644V6.88176V6.89912V6.91648V6.93384V6.95121V6.96857V6.98593V7.00329V7.02065V7.03801V7.05537V7.07273V7.0901V7.10746V7.12482V7.14218V7.15954V7.1769V7.19426V7.21162V7.22899V7.24635V7.26371V7.28107V7.29843V7.31579V7.33315V7.35052V7.36788V7.38524V7.4026V7.41996V7.43732V7.45468V7.47204V7.48941V7.50677V7.52413V7.54149V7.55885V7.57621V7.59357V7.61094V7.6283V7.64566V7.66302V7.68038V7.69774V7.7151V7.73246V7.74983V7.76719V7.78455V7.80191V7.81927V7.83663V7.85399V7.87136V7.88872V7.90608V7.92344V7.9408V7.95816V7.97552V7.99288V8.01025V8.02761V8.04497V8.06233V8.07969V8.09705V8.11441V8.13178V8.14914V8.1665V8.18386V8.20122V8.21858V8.23594V8.2533V8.27067V8.28803V8.30539V8.32275V8.34011V8.35747V8.37483V8.3922V8.40956V8.42692V8.44428V8.46164V8.479V8.49636V8.51372V8.53109V8.54845V8.56581V8.58317V8.60053V8.61789V8.63525V8.65262V8.66998V8.68734V8.7047V8.72206V8.73942V8.75678V8.77414V8.79151V8.80887V8.82623V8.84359V8.86095V8.87831V8.89567V8.91304V8.9304V8.94776V8.96512V8.98248V8.99984V9.0172V9.03456V9.05193V9.06929V9.08665V9.10401V9.12137V9.13873V9.15609V9.17346V9.19082V9.20818V9.22554V9.2429V9.26026V9.27762V9.29498V9.31235V9.32971V9.34707V9.36443V9.38179V9.39915V9.41651V9.43388V9.45124V9.4686V9.48596V9.50332V9.52068V9.53804V9.5554V9.57277V9.59013V9.60749V9.62485V9.64221V9.65957V9.67693V9.6943V9.71166V9.72902V9.74638V9.76374V9.7811V9.79846V9.81582V9.83319V9.85055V9.86791V9.88527V9.90263V9.91999V9.93735V9.95472V9.97208V9.98944V10.0068V10.0242V10.0415V10.0589V10.0762V10.0936V10.111V10.1283V10.1457V10.1631V10.1804V10.1978V10.2151V10.2325V10.2499V10.2672V10.2846V10.3019V10.3193V10.3367V10.354V10.3714V10.3887V10.4061V10.4235V10.4408V10.4582V10.4756V10.4929V10.5103V10.5276V10.545V10.5624V10.5797V10.5971V10.6144V10.6318V10.6492V10.6665V10.6839V10.7013V10.7186V10.736V10.7533V10.7707V10.7881V10.8054V10.8228V10.8401V10.8575V10.8749V10.8922V10.9096V10.9269V10.9443V10.9617V10.979V10.9964V11.0138V11.0311V11.0485V11.0658V11.0832V11.1006V11.1179V11.1353V11.1526V11.17V11.1874V11.2047V11.2221V11.2395V11.2568V11.2742V11.2915V11.3089V11.3263V11.3436V11.361V11.3783V11.3957V11.4131V11.4304V11.4478V11.4652V11.4825V11.4999V11.5172V11.5346V11.552V11.5693V11.5867V11.604V11.6214V11.6388V11.6561V11.6735V11.6908V11.7082V11.7256V11.7429V11.7603V11.7777V11.795V11.8124V11.8297V11.8471V11.8645V11.8818V11.8992V11.9165V11.9339V11.9513V11.9686V11.986V12.0034V12.0207V12.0381V12.0554V12.0728V12.0902V12.1075V12.1249V12.1422V12.1596V12.177V12.1943V12.2117V12.2291V12.2464V12.2638V12.2811V12.2985V12.3159V12.3332V12.3506V12.3679V12.3853V12.4027V12.42V12.4374V12.4547V12.4721V12.4895V12.5068V12.5242V12.5416V12.5589V12.5763V12.5936V12.611V12.6284V12.6457V12.6631V12.6804V12.6978V12.7152V12.7325V12.7499V12.7673V12.7846V12.802V12.8193V12.8367V12.8541V12.8714V12.8888V12.9061V12.9235V12.9409V12.9582V12.9756V12.9929V13.0103V13.0277V13.045V13.0624V13.0798V13.0971V13.1145V13.1318V13.1492V13.1666V13.1839V13.2013V13.2186V13.236V13.2534V13.2707V13.2881V13.3055V13.3228V13.3402V13.3575V13.3749V13.3923V13.4096V13.427V13.4443V13.4617V13.4791V13.4964V13.5138V13.5312V13.5485V13.5659V13.5832V13.6006V13.618V13.6353V13.6527V13.67V13.6874V13.7048V13.7221V13.7395V13.7568V13.7742V13.7916V13.8089V13.8263V13.8437V13.861V13.8784V13.8957V13.9131V13.9305V13.9478V13.9652V13.9825V13.9999V14.0173V14.0346V14.052V14.0694V14.0867V14.1041V14.1214V14.1388V14.1562V14.1735V14.1909V14.2082V14.2256V14.243V14.2603V14.2777V14.295V14.3124V14.3298V14.3471V14.3645V14.3819V14.3992V14.4166V14.4339V14.4513V14.4687V14.486V14.5034V14.5207V14.5381V14.5555V14.5728V14.5902V14.6076V14.6249V14.6423V14.6596V14.677V14.6944V14.7117V14.7291V14.7464V14.7638V14.7812V14.7985V14.8159V14.8333V14.8506V14.868V14.8853V14.9027V14.9201V14.9374V14.9548V14.9721V14.9895V15.0069V15.0242C19.5002 15.7227 18.9209 16.302 18.222 16.302H5.77758C5.07908 16.302 4.5 15.7229 4.5 15.0242V15.0069V14.9895V14.9721V14.9548V14.9374V14.9201V14.9027V14.8853V14.868V14.8506V14.8333V14.8159V14.7985V14.7812V14.7638V14.7464V14.7291V14.7117V14.6944V14.677V14.6596V14.6423V14.6249V14.6076V14.5902V14.5728V14.5555V14.5381V14.5207V14.5034V14.486V14.4687V14.4513V14.4339V14.4166V14.3992V14.3819V14.3645V14.3471V14.3298V14.3124V14.295V14.2777V14.2603V14.243V14.2256V14.2082V14.1909V14.1735V14.1562V14.1388V14.1214V14.1041V14.0867V14.0694V14.052V14.0346V14.0173V13.9999V13.9825V13.9652V13.9478V13.9305V13.9131V13.8957V13.8784V13.861V13.8437V13.8263V13.8089V13.7916V13.7742V13.7568V13.7395V13.7221V13.7048V13.6874V13.67V13.6527V13.6353V13.618V13.6006V13.5832V13.5659V13.5485V13.5312V13.5138V13.4964V13.4791V13.4617V13.4443V13.427V13.4096V13.3923V13.3749V13.3575V13.3402V13.3228V13.3055V13.2881V13.2707V13.2534V13.236V13.2186V13.2013V13.1839V13.1666V13.1492V13.1318V13.1145V13.0971V13.0798V13.0624V13.045V13.0277V13.0103V12.9929V12.9756V12.9582V12.9409V12.9235V12.9061V12.8888V12.8714V12.8541V12.8367V12.8193V12.802V12.7846V12.7673V12.7499V12.7325V12.7152V12.6978V12.6804V12.6631V12.6457V12.6284V12.611V12.5936V12.5763V12.5589V12.5416V12.5242V12.5068V12.4895V12.4721V12.4547V12.4374V12.42V12.4027V12.3853V12.3679V12.3506V12.3332V12.3159V12.2985V12.2811V12.2638V12.2464V12.2291V12.2117V12.1943V12.177V12.1596V12.1422V12.1249V12.1075V12.0902V12.0728V12.0554V12.0381V12.0207V12.0034V11.986V11.9686V11.9513V11.9339V11.9165V11.8992V11.8818V11.8645V11.8471V11.8297V11.8124V11.795V11.7777V11.7603V11.7429V11.7256V11.7082V11.6908V11.6735V11.6561V11.6388V11.6214V11.604V11.5867V11.5693V11.552V11.5346V11.5172V11.4999V11.4825V11.4652V11.4478V11.4304V11.4131V11.3957V11.3783V11.361V11.3436V11.3263V11.3089V11.2915V11.2742V11.2568V11.2395V11.2221V11.2047V11.1874V11.17V11.1526V11.1353V11.1179V11.1006V11.0832V11.0658V11.0485V11.0311V11.0138V10.9964V10.979V10.9617V10.9443V10.9269V10.9096V10.8922V10.8749V10.8575V10.8401V10.8228V10.8054V10.7881V10.7707V10.7533V10.736V10.7186V10.7013V10.6839V10.6665V10.6492V10.6318V10.6144V10.5971V10.5797V10.5624V10.545V10.5276V10.5103V10.4929V10.4756V10.4582V10.4408V10.4235V10.4061V10.3887V10.3714V10.354V10.3367V10.3193V10.3019V10.2846V10.2672V10.2499V10.2325V10.2151V10.1978V10.1804V10.1631V10.1457V10.1283V10.111V10.0936V10.0762V10.0589V10.0415V10.0242V10.0068V9.98944V9.97208V9.95472V9.93735V9.91999V9.90263V9.88527V9.86791V9.85055V9.83319V9.81582V9.79846V9.7811V9.76374V9.74638V9.72902V9.71166V9.6943V9.67693V9.65957V9.64221V9.62485V9.60749V9.59013V9.57277V9.5554V9.53804V9.52068V9.50332V9.48596V9.4686V9.45124V9.43388V9.41651V9.39915V9.38179V9.36443V9.34707V9.32971V9.31235V9.29498V9.27762V9.26026V9.2429V9.22554V9.20818V9.19082V9.17346V9.15609V9.13873V9.12137V9.10401V9.08665V9.06929V9.05193V9.03456V9.0172V8.99984V8.98248V8.96512V8.94776V8.9304V8.91304V8.89567V8.87831V8.86095V8.84359V8.82623V8.80887V8.79151V8.77414V8.75678V8.73942V8.72206V8.7047V8.68734V8.66998V8.65262V8.63525V8.61789V8.60053V8.58317V8.56581V8.54845V8.53109V8.51372V8.49636V8.479V8.46164V8.44428V8.42692V8.40956V8.3922V8.37483V8.35747V8.34011V8.32275V8.30539V8.28803V8.27067V8.2533V8.23594V8.21858V8.20122V8.18386V8.1665V8.14914V8.13178V8.11441V8.09705V8.07969V8.06233V8.04497V8.02761V8.01025V7.99288V7.97552V7.95816V7.9408V7.92344V7.90608V7.88872V7.87136V7.85399V7.83663V7.81927V7.80191V7.78455V7.76719V7.74983V7.73246V7.7151V7.69774V7.68038V7.66302V7.64566V7.6283V7.61094V7.59357V7.57621V7.55885V7.54149V7.52413V7.50677V7.48941V7.47204V7.45468V7.43732V7.41996V7.4026V7.38524V7.36788V7.35052V7.33315V7.31579V7.29843V7.28107V7.26371V7.24635V7.22899V7.21162V7.19426V7.1769V7.15954V7.14218V7.12482V7.10746V7.0901V7.07273V7.05537V7.03801V7.02065V7.00329V6.98593V6.96857V6.95121V6.93384V6.91648V6.89912V6.88176V6.8644V6.84704V6.82968V6.81231V6.79495V6.77759V6.76023V6.74287V6.72551V6.70815V6.69078V6.67342V6.65606V6.6387V6.62134V6.60398V6.58662V6.56926V6.55189V6.53453V6.51717V6.49981V6.48245V6.46509V6.44773V6.43037V6.413V6.39564V6.37828V6.36092V6.34356V6.3262V6.30884V6.29147V6.27411V6.25675V6.23939V6.22203V6.20467V6.18731V6.16995V6.15258V6.13522ZM6.87037 13.839C6.87037 13.7879 6.91166 13.7464 6.96305 13.7464H9.03684C9.06157 13.7464 9.08516 13.7561 9.10276 13.7737L9.456 13.4198L9.10244 13.7734C9.11982 13.7907 9.12963 13.8144 9.12963 13.839C9.12963 13.8637 9.11993 13.8871 9.10244 13.9046C9.08536 13.9217 9.06183 13.9316 9.03684 13.9316H6.96276C6.93849 13.9316 6.91481 13.9219 6.89736 13.9044C6.88021 13.8873 6.87037 13.8637 6.87037 13.839Z" fill="#818B9A" stroke="#818B9A"/>
</svg>
