<svg width="24" height="25" viewBox="0 0 24 25" fill="none" xmlns="http://www.w3.org/2000/svg">
<path d="M5.30797 19.9387L8.32671 19.1861L8.32679 19.1861L8.14489 19.2315L4.50175 20.141L4.50197 20.1397L5.30797 19.9387ZM5.45204 16.3349L4.84749 18.7507L5.4101 16.4977L5.45391 16.3223L5.45204 16.3349ZM5.45606 16.3079L5.45553 16.3115L5.40524 16.2157C5.42196 16.2465 5.4389 16.2773 5.45606 16.3079ZM4.53037 13.3284C4.61714 14.272 4.88213 15.1921 5.31266 16.0393L5.30628 16.0272C4.87924 15.1856 4.61599 14.2706 4.53053 13.3307L4.53037 13.3284ZM11.9998 5.1416C11.9998 5.1416 11.9998 5.1416 11.9999 5.1416L11.9998 5.1416ZM8.6014 19.3292C9.53072 19.801 10.5492 20.0744 11.5922 20.1307C11.7231 20.1378 11.854 20.1414 11.9848 20.1416C11.9463 20.1415 11.9078 20.1412 11.8692 20.1405C10.7389 20.1215 9.62741 19.8472 8.61803 19.3381L8.6014 19.3292Z" fill="#818B9A" stroke="#818B9A"/>
</svg>
