<svg width="17" height="17" viewBox="0 0 17 17" fill="none" xmlns="http://www.w3.org/2000/svg">
<path fill-rule="evenodd" clip-rule="evenodd" d="M13.4734 13.4633C11.436 15.5009 8.41905 15.9412 5.95014 14.7994C5.58567 14.6526 5.28685 14.534 5.00278 14.534C4.21152 14.5387 3.22664 15.306 2.71477 14.7947C2.2029 14.2828 2.9707 13.2971 2.9707 12.5011C2.9707 12.217 2.85681 11.9235 2.71008 11.5583C1.56775 9.08979 2.0086 6.07183 4.04603 4.03484C6.64693 1.433 10.8725 1.433 13.4734 4.03417C16.079 6.64004 16.0743 10.8621 13.4734 13.4633Z" stroke="#818B9A" stroke-width="0.95" stroke-linecap="round" stroke-linejoin="round"/>
<path opacity="0.4" d="M11.3855 9.02535H11.3915" stroke="#818B9A" stroke-width="2" stroke-linecap="round" stroke-linejoin="round"/>
<path opacity="0.4" d="M8.7129 9.02535H8.7189" stroke="#818B9A" stroke-width="2" stroke-linecap="round" stroke-linejoin="round"/>
<path opacity="0.4" d="M6.04005 9.02535H6.04605" stroke="#818B9A" stroke-width="2" stroke-linecap="round" stroke-linejoin="round"/>
</svg>
