<svg width="17" height="17" viewBox="0 0 17 17" fill="none" xmlns="http://www.w3.org/2000/svg">
<path fill-rule="evenodd" clip-rule="evenodd" d="M13.4735 13.4633C11.4361 15.5009 8.41914 15.9411 5.95023 14.7994C5.58576 14.6526 5.28694 14.534 5.00287 14.534C4.21161 14.5387 3.22673 15.3059 2.71486 14.7947C2.20299 14.2827 2.9708 13.2971 2.9708 12.501C2.9708 12.2169 2.8569 11.9235 2.71017 11.5583C1.56784 9.08976 2.00869 6.0718 4.04613 4.03481C6.64702 1.43296 10.8726 1.43296 13.4735 4.03414C16.0791 6.64001 16.0744 10.8621 13.4735 13.4633Z" stroke="white" stroke-width="0.95" stroke-linecap="round" stroke-linejoin="round"/>
<path opacity="0.4" d="M11.3856 9.02535H11.3916" stroke="white" stroke-width="2" stroke-linecap="round" stroke-linejoin="round"/>
<path opacity="0.4" d="M8.7129 9.02535H8.7189" stroke="white" stroke-width="2" stroke-linecap="round" stroke-linejoin="round"/>
<path opacity="0.4" d="M6.04023 9.02535H6.04623" stroke="white" stroke-width="2" stroke-linecap="round" stroke-linejoin="round"/>
</svg>
