<svg width="24" height="25" viewBox="0 0 24 25" fill="none" xmlns="http://www.w3.org/2000/svg">
<path d="M4 5.95742C4 5.07377 4.71634 4.35742 5.6 4.35742H8.8C9.68366 4.35742 10.4 5.07377 10.4 5.95742V9.15742C10.4 10.0411 9.68366 10.7574 8.8 10.7574H5.6C4.71634 10.7574 4 10.0411 4 9.15742V5.95742Z" stroke="white" stroke-width="1.5"/>
<path d="M20 7.55742C20 9.32473 18.5673 10.7574 16.8 10.7574C15.0327 10.7574 13.6 9.32473 13.6 7.55742C13.6 5.79011 15.0327 4.35742 16.8 4.35742C18.5673 4.35742 20 5.79011 20 7.55742Z" stroke="white" stroke-width="1.5"/>
<path d="M10.4 17.1574C10.4 18.9247 8.96731 20.3574 7.2 20.3574C5.43269 20.3574 4 18.9247 4 17.1574C4 15.3901 5.43269 13.9574 7.2 13.9574C8.96731 13.9574 10.4 15.3901 10.4 17.1574Z" stroke="white" stroke-width="1.5"/>
<path d="M13.6 15.5574C13.6 14.6738 14.3163 13.9574 15.2 13.9574H18.4C19.2837 13.9574 20 14.6738 20 15.5574V18.7574C20 19.6411 19.2837 20.3574 18.4 20.3574H15.2C14.3163 20.3574 13.6 19.6411 13.6 18.7574V15.5574Z" stroke="white" stroke-width="1.5"/>
</svg>
