<svg width="24" height="25" viewBox="0 0 24 25" fill="none" xmlns="http://www.w3.org/2000/svg">
<path d="M3 18.7905C3 16.7882 4.45485 15.0828 6.43204 14.7673L6.61013 14.7388C8.19336 14.4862 9.80664 14.4862 11.3899 14.7388L11.568 14.7673C13.5451 15.0828 15 16.7882 15 18.7905C15 19.6559 14.2984 20.3574 13.433 20.3574H4.56697C3.70156 20.3574 3 19.6559 3 18.7905Z" stroke="white" stroke-width="1.5"/>
<path d="M12.5 7.85742C12.5 9.79042 10.933 11.3574 9 11.3574C7.067 11.3574 5.5 9.79042 5.5 7.85742C5.5 5.92443 7.067 4.35742 9 4.35742C10.933 4.35742 12.5 5.92443 12.5 7.85742Z" stroke="white" stroke-width="1.5"/>
<path d="M15 11.3574C16.933 11.3574 18.5 9.79042 18.5 7.85742C18.5 5.92443 16.933 4.35742 15 4.35742M17.3899 20.3574H19.433C20.2984 20.3574 21 19.6559 21 18.7905C21 16.7882 19.5451 15.0828 17.568 14.7673V14.7673C17.4494 14.7483 17.3293 14.7388 17.2093 14.7388C16.8895 14.7388 16.7902 14.7388 16.2412 14.7388" stroke="white" stroke-width="1.5" stroke-linecap="round"/>
</svg>
