<svg width="23" height="27" viewBox="0 0 23 27" fill="none" xmlns="http://www.w3.org/2000/svg">
<path d="M16.8267 14.5052C16.687 12.7848 15.6795 11.2659 14.1433 10.4238C14.8737 9.73915 15.2975 8.79546 15.2975 7.78789C15.2975 5.7506 13.5863 4.10742 11.5005 4.10742C9.41473 4.10742 7.70353 5.7506 7.70353 7.78789C7.70353 8.7958 8.13022 9.73918 8.85829 10.4234C7.32184 11.2657 6.317 12.785 6.17469 14.5052H5.5923C5.07804 14.5052 4.58189 14.7154 4.23107 15.0894C3.88045 15.4632 3.70695 15.9664 3.75911 16.4691C3.75914 16.4693 3.75916 16.4695 3.75919 16.4698L4.34334 22.382L4.36561 22.6074H4.59213H18.4089H18.6354L18.6577 22.382L19.242 16.4684L19.2421 16.4676C19.2902 15.9636 19.1179 15.4607 18.7701 15.0895L18.7691 15.0885C18.4194 14.7195 17.9241 14.5052 17.4087 14.5052H16.8267ZM9.87218 10.1635L9.87189 10.1633C9.04104 9.63275 8.54723 8.74366 8.54723 7.78789C8.54723 6.22518 9.86403 4.93983 11.5005 4.93983C13.137 4.93983 14.4538 6.22518 14.4538 7.78789C14.4538 8.74321 13.9604 9.6294 13.1287 10.1636C12.1626 10.7823 10.8382 10.7823 9.87218 10.1635ZM13.0411 11.149L13.0412 11.1493L13.0523 11.1444C13.1328 11.1087 13.2084 11.0671 13.2743 11.0307C13.2856 11.0246 13.2965 11.0185 13.3071 11.0127C13.3255 11.0029 13.343 10.9946 13.3662 10.9836C13.3709 10.9814 13.3759 10.979 13.3811 10.9766C14.8493 11.6291 15.8258 12.972 15.9763 14.5052H7.01786C7.1684 12.972 8.14491 11.6291 9.61305 10.9766C9.61829 10.979 9.62324 10.9814 9.62795 10.9836C9.65149 10.9947 9.66912 11.0031 9.68775 11.0131L9.68958 11.0141C9.7659 11.0558 9.85061 11.1021 9.93681 11.1421C9.97875 11.162 10.0349 11.1801 10.0594 11.188C10.0624 11.189 10.0648 11.1898 10.0668 11.1904C10.5176 11.369 11.0005 11.4717 11.4971 11.4717C11.9941 11.4717 12.4775 11.3688 12.9286 11.19C12.9644 11.1774 13.0041 11.1634 13.0411 11.149ZM18.4008 16.3885L18.4007 16.3893L17.8663 21.7783H5.13133L4.59688 16.3893L4.59683 16.3887C4.56989 16.123 4.66143 15.8559 4.84889 15.6588L4.85002 15.6576C5.03868 15.4566 5.30894 15.3409 5.5923 15.3409H6.40344H16.5942H17.4053C17.6887 15.3409 17.9589 15.4566 18.1476 15.6576C18.3367 15.8591 18.4276 16.127 18.4008 16.3885Z" fill="white" stroke="white" stroke-width="0.5"/>
<path d="M4 22.2574H3.9V22.3574V22.6416V22.7416H4H15.973H16.073V22.6416V22.3574V22.2574H15.973H4Z" fill="white" stroke="white" stroke-width="0.2"/>
<path d="M11.4991 21.325C12.1174 21.325 12.6373 20.8754 12.6373 20.3052C12.6373 19.7357 12.1181 19.2809 11.4991 19.2809C10.8812 19.2809 10.3609 19.7254 10.3609 20.3006C10.3609 20.8751 10.8805 21.325 11.4991 21.325ZM11.4991 19.9477C11.7395 19.9477 11.9103 20.1188 11.9103 20.3006C11.9103 20.4858 11.7357 20.6534 11.4991 20.6534C11.2588 20.6534 11.0879 20.4824 11.0879 20.3006C11.0879 20.1188 11.2588 19.9477 11.4991 19.9477Z" fill="white" stroke="white" stroke-width="0.2"/>
</svg>
