<svg width="24" height="24" viewBox="0 0 24 24" fill="none" xmlns="http://www.w3.org/2000/svg">
<path d="M11.28 9.95904C11.28 10.3567 11.6024 10.679 12 10.679C12.3976 10.679 12.72 10.3567 12.72 9.95904H11.28ZM12.72 4.32C12.72 3.92236 12.3976 3.6 12 3.6C11.6024 3.6 11.28 3.92236 11.28 4.32H12.72ZM9.41839 6.8751C9.78029 6.71031 9.94003 6.28334 9.7753 5.92145C9.61046 5.55956 9.1835 5.39979 8.82161 5.56458L9.41839 6.8751ZM5.28 12.1536L4.5599 12.1499L4.56005 12.162L5.28 12.1536ZM12 18.72L12.0083 18C12.0028 18 11.9972 18 11.9917 18L12 18.72ZM18.72 12.1536L19.4401 12.162L19.44 12.1499L18.72 12.1536ZM15.1784 5.56458C14.8164 5.39979 14.3895 5.55956 14.2247 5.92145C14.06 6.28334 14.2197 6.71031 14.5816 6.8751L15.1784 5.56458ZM12.72 9.95904V4.32H11.28V9.95904H12.72ZM8.82161 5.56458C6.23849 6.74084 4.57477 9.31153 4.5599 12.1499L5.99999 12.1573C6.01192 9.88068 7.34636 7.81862 9.41839 6.8751L8.82161 5.56458ZM4.56005 12.162C4.60738 16.2284 7.94187 19.4867 12.0083 19.44L11.9917 18C8.72049 18.0376 6.03803 15.4164 5.99995 12.1452L4.56005 12.162ZM11.9917 19.44C16.0581 19.4867 19.3929 16.2284 19.4401 12.162L18.0001 12.1452C17.962 15.4164 15.2796 18.0376 12.0083 18L11.9917 19.44ZM19.44 12.1499C19.4251 9.31153 17.7615 6.74084 15.1784 5.56458L14.5816 6.8751C16.6536 7.81862 17.9881 9.88068 18 12.1573L19.44 12.1499Z" fill="#818B9A"/>
</svg>
