<svg width="24" height="25" viewBox="0 0 24 25" fill="none" xmlns="http://www.w3.org/2000/svg">
<path d="M16.5077 11.8425C16.9725 16.1431 18.8008 17.4432 18.8008 17.4432H4.39893C4.39893 17.4432 6.79923 15.7366 6.79923 9.76225C6.79923 8.40448 7.3049 7.10192 8.20501 6.14179C9.10593 5.18167 10.3277 4.6416 11.5998 4.6416C11.8695 4.6416 12.1375 4.6656 12.3999 4.71361M12.984 19.8435C12.8435 20.0862 12.6417 20.2877 12.3987 20.4278C12.1558 20.5679 11.8803 20.6416 11.5998 20.6416C11.3194 20.6416 11.0439 20.5679 10.801 20.4278C10.558 20.2877 10.3562 20.0862 10.2157 19.8435M17.2006 9.44221C17.8372 9.44221 18.4477 9.18932 18.8978 8.73918C19.348 8.28904 19.6009 7.67851 19.6009 7.04191C19.6009 6.40531 19.348 5.79478 18.8978 5.34463C18.4477 4.89449 17.8372 4.6416 17.2006 4.6416C16.564 4.6416 15.9534 4.89449 15.5033 5.34463C15.0531 5.79478 14.8003 6.40531 14.8003 7.04191C14.8003 7.67851 15.0531 8.28904 15.5033 8.73918C15.9534 9.18932 16.564 9.44221 17.2006 9.44221Z" stroke="#818B9A" stroke-width="1.5" stroke-linecap="round" stroke-linejoin="round"/>
</svg>
