<svg width="20" height="21" viewBox="0 0 20 21" fill="none" xmlns="http://www.w3.org/2000/svg">
<g clip-path="url(#clip0_74_1646)">
<path d="M13.2089 0.5H2.84391C2.55534 0.5 2.32141 0.733929 2.32141 1.18786V20.1429C2.32141 20.2661 2.55534 20.5 2.84391 20.5H17.1561C17.4446 20.5 17.6786 20.2661 17.6786 20.1429V5.135C17.6786 4.88643 17.6453 4.80643 17.5868 4.7475L13.4311 0.591786C13.372 0.533098 13.2922 0.500109 13.2089 0.5Z" fill="#E9E9E0"/>
<path d="M13.3928 0.553955V4.78574H17.6246L13.3928 0.553955Z" fill="#D9D7CA"/>
<path d="M6.96927 12.4013C6.84498 12.4013 6.7257 12.361 6.62391 12.2849C6.25213 12.006 6.20213 11.6956 6.2257 11.4842C6.2907 10.9028 7.00963 10.2942 8.3632 9.67419C8.90034 8.49704 9.41141 7.04668 9.71606 5.8349C9.35963 5.05918 9.0132 4.05276 9.2657 3.4624C9.35427 3.25561 9.46463 3.09704 9.6707 3.02847C9.78916 2.99532 9.91078 2.97473 10.0336 2.96704C10.2136 2.96704 10.3718 3.19883 10.4839 3.34168C10.5893 3.47597 10.8282 3.76061 10.3507 5.77097C10.8321 6.76526 11.5143 7.77811 12.1678 8.47168C12.6361 8.38704 13.0389 8.34383 13.3671 8.34383C13.9264 8.34383 14.2653 8.47419 14.4036 8.74276C14.5178 8.9649 14.4711 9.22454 14.2643 9.51419C14.0653 9.7924 13.7911 9.93954 13.4714 9.93954C13.0371 9.93954 12.5314 9.66526 11.9675 9.12347C10.9543 9.33526 9.77106 9.71311 8.81463 10.1313C8.51606 10.7649 8.22998 11.2753 7.96356 11.6495C7.59748 12.162 7.28177 12.4013 6.96927 12.4013ZM7.91998 10.5706C7.15677 10.9995 6.8457 11.352 6.8232 11.5506C6.81963 11.5835 6.80998 11.6699 6.97713 11.7978C7.03034 11.781 7.34106 11.6392 7.91998 10.5706ZM12.7903 8.98419C13.0814 9.20811 13.1525 9.32133 13.3428 9.32133C13.4264 9.32133 13.6646 9.31776 13.775 9.16383C13.8282 9.08919 13.8489 9.04133 13.8571 9.01561C13.8132 8.9924 13.755 8.94526 13.4375 8.94526C13.2571 8.94561 13.0303 8.95347 12.7903 8.98419ZM10.1225 6.63347C9.85511 7.55116 9.53627 8.45306 9.16749 9.3349C9.92353 9.042 10.6987 8.80096 11.4875 8.61347C11.0053 8.05347 10.5236 7.35419 10.1225 6.63347ZM9.9057 3.61133C9.8707 3.62311 9.4307 4.23883 9.93999 4.7599C10.2789 4.00454 9.92106 3.60633 9.9057 3.61133ZM17.1561 20.4999H2.84391C2.70534 20.4999 2.57244 20.4449 2.47445 20.3469C2.37646 20.2489 2.32141 20.116 2.32141 19.9774V14.4285H17.6786V19.9774C17.6786 20.266 17.4446 20.4999 17.1561 20.4999Z" fill="#CC4B4C"/>
<path d="M6.20887 19.4286H5.6228V15.8301H6.6578C6.81066 15.8301 6.96209 15.8544 7.11173 15.9033C7.26137 15.9522 7.39566 16.0254 7.51459 16.1229C7.63352 16.2204 7.72959 16.3386 7.8028 16.4769C7.87602 16.6151 7.9128 16.7704 7.9128 16.9433C7.9128 17.1258 7.88173 17.2908 7.81995 17.439C7.76236 17.5812 7.67392 17.7088 7.56102 17.8126C7.4503 17.9133 7.31673 17.9915 7.16066 18.0469C7.00459 18.1022 6.83173 18.1297 6.64316 18.1297H6.20852L6.20887 19.4286ZM6.20887 16.2744V17.7001H6.74602C6.81745 17.7001 6.88816 17.6879 6.95852 17.6633C7.02852 17.639 7.0928 17.599 7.15137 17.5436C7.20995 17.4883 7.25709 17.4111 7.2928 17.3119C7.32852 17.2126 7.34637 17.0897 7.34637 16.9433C7.34637 16.8847 7.33816 16.8169 7.32209 16.7408C7.30439 16.6614 7.27033 16.5866 7.22209 16.5211C7.16608 16.4467 7.09327 16.3865 7.00959 16.3454C6.91852 16.2983 6.7978 16.2747 6.64816 16.2747L6.20887 16.2744ZM11.5067 17.5294C11.5067 17.8254 11.4749 18.0786 11.4114 18.2886C11.3478 18.4986 11.2674 18.6744 11.1696 18.8161C11.0717 18.9579 10.9621 19.0694 10.8399 19.1508C10.7178 19.2322 10.5999 19.2929 10.486 19.334C10.385 19.3715 10.2802 19.3977 10.1735 19.4122C10.0792 19.4229 10.0092 19.4286 9.96352 19.4286H8.60137V15.8301H9.6853C9.98816 15.8301 10.2542 15.8783 10.4835 15.974C10.7128 16.0697 10.9035 16.1979 11.0549 16.3572C11.2064 16.5165 11.3192 16.6983 11.3942 16.9015C11.4692 17.1051 11.5067 17.3144 11.5067 17.5294ZM9.76852 18.999C10.1657 18.999 10.4521 18.8722 10.6278 18.6183C10.8035 18.3644 10.8914 17.9965 10.8914 17.5147C10.8914 17.3651 10.8735 17.2169 10.8378 17.0704C10.8017 16.924 10.7328 16.7915 10.6303 16.6726C10.5278 16.5536 10.3885 16.4576 10.2128 16.3844C10.0371 16.3112 9.80923 16.2744 9.52923 16.2744H9.18745V18.999H9.76852ZM12.9521 16.2744V17.4072H14.456V17.8076H12.9521V19.4286H12.3564V15.8301H14.6071V16.2744H12.9521Z" fill="white"/>
</g>
<defs>
<clipPath id="clip0_74_1646">
<rect width="20" height="20" fill="white" transform="translate(0 0.5)"/>
</clipPath>
</defs>
</svg>
