<svg width="24" height="25" viewBox="0 0 24 25" fill="none" xmlns="http://www.w3.org/2000/svg">
<path d="M5 19.4689C5 17.0558 6.69732 15.0004 9.00404 14.6201L9.21182 14.5858C11.0589 14.2813 12.9411 14.2813 14.7882 14.5858L14.996 14.6201C17.3027 15.0004 19 17.0558 19 19.4689C19 20.5119 18.1815 21.3574 17.1719 21.3574H6.82813C5.81848 21.3574 5 20.5119 5 19.4689Z" stroke="white" stroke-width="1.5"/>
<path d="M16.0834 7.29492C16.0834 9.46954 14.2552 11.2324 12 11.2324C9.74486 11.2324 7.91669 9.46954 7.91669 7.29492C7.91669 5.1203 9.74486 3.35742 12 3.35742C14.2552 3.35742 16.0834 5.1203 16.0834 7.29492Z" stroke="white" stroke-width="1.5"/>
</svg>
