<svg width="157" height="32" viewBox="0 0 157 32" fill="none" xmlns="http://www.w3.org/2000/svg">
<path d="M49.616 25.288C48.48 25.288 47.456 25.112 46.544 24.76C45.632 24.392 44.856 23.856 44.216 23.152C43.576 22.432 43.08 21.544 42.728 20.488C42.376 19.416 42.2 18.168 42.2 16.744C42.2 15.336 42.376 14.088 42.728 13C43.08 11.896 43.576 10.976 44.216 10.24C44.856 9.488 45.632 8.92 46.544 8.536C47.456 8.152 48.48 7.96 49.616 7.96C51.168 7.96 52.448 8.28 53.456 8.92C54.464 9.544 55.272 10.536 55.88 11.896L52.736 13.528C52.512 12.824 52.16 12.264 51.68 11.848C51.216 11.416 50.528 11.2 49.616 11.2C48.544 11.2 47.68 11.552 47.024 12.256C46.384 12.944 46.064 13.952 46.064 15.28V17.968C46.064 19.296 46.384 20.312 47.024 21.016C47.68 21.704 48.544 22.048 49.616 22.048C50.512 22.048 51.224 21.808 51.752 21.328C52.296 20.832 52.696 20.24 52.952 19.552L55.928 21.28C55.304 22.56 54.48 23.552 53.456 24.256C52.448 24.944 51.168 25.288 49.616 25.288ZM63.5448 25.288C62.5848 25.288 61.7288 25.136 60.9768 24.832C60.2248 24.512 59.5848 24.072 59.0568 23.512C58.5448 22.936 58.1528 22.24 57.8808 21.424C57.6248 20.608 57.4968 19.696 57.4968 18.688C57.4968 17.696 57.6248 16.8 57.8808 16C58.1368 15.184 58.5128 14.488 59.0088 13.912C59.5208 13.336 60.1448 12.896 60.8808 12.592C61.6168 12.272 62.4568 12.112 63.4008 12.112C64.4408 12.112 65.3288 12.288 66.0648 12.64C66.8168 12.992 67.4248 13.464 67.8888 14.056C68.3688 14.648 68.7128 15.336 68.9208 16.12C69.1448 16.888 69.2568 17.696 69.2568 18.544V19.6H61.1688V19.792C61.1688 20.624 61.3928 21.288 61.8408 21.784C62.2888 22.264 62.9928 22.504 63.9528 22.504C64.6888 22.504 65.2888 22.36 65.7528 22.072C66.2168 21.768 66.6488 21.408 67.0488 20.992L68.8248 23.2C68.2648 23.856 67.5288 24.368 66.6168 24.736C65.7208 25.104 64.6968 25.288 63.5448 25.288ZM63.4728 14.728C62.7528 14.728 62.1848 14.968 61.7688 15.448C61.3688 15.912 61.1688 16.536 61.1688 17.32V17.512H65.5848V17.296C65.5848 16.528 65.4088 15.912 65.0568 15.448C64.7208 14.968 64.1928 14.728 63.4728 14.728ZM71.7654 25V12.4H75.3174V14.536H75.4614C75.6854 13.88 76.0774 13.312 76.6374 12.832C77.1974 12.352 77.9734 12.112 78.9654 12.112C80.2614 12.112 81.2374 12.544 81.8934 13.408C82.5654 14.272 82.9014 15.504 82.9014 17.104V25H79.3494V17.392C79.3494 16.576 79.2214 15.976 78.9654 15.592C78.7094 15.192 78.2534 14.992 77.5974 14.992C77.3094 14.992 77.0294 15.032 76.7574 15.112C76.4854 15.176 76.2374 15.288 76.0134 15.448C75.8054 15.608 75.6374 15.808 75.5094 16.048C75.3814 16.272 75.3174 16.536 75.3174 16.84V25H71.7654ZM90.4783 25C89.2463 25 88.3103 24.688 87.6703 24.064C87.0463 23.44 86.7343 22.528 86.7343 21.328V15.16H84.9583V12.4H85.8463C86.3263 12.4 86.6543 12.288 86.8303 12.064C87.0063 11.824 87.0943 11.488 87.0943 11.056V8.992H90.2863V12.4H92.7823V15.16H90.2863V22.24H92.5903V25H90.4783ZM100.412 25.288C99.452 25.288 98.596 25.136 97.844 24.832C97.092 24.512 96.452 24.072 95.924 23.512C95.412 22.936 95.02 22.24 94.748 21.424C94.492 20.608 94.364 19.696 94.364 18.688C94.364 17.696 94.492 16.8 94.748 16C95.004 15.184 95.38 14.488 95.876 13.912C96.388 13.336 97.012 12.896 97.748 12.592C98.484 12.272 99.324 12.112 100.268 12.112C101.308 12.112 102.196 12.288 102.932 12.64C103.684 12.992 104.292 13.464 104.756 14.056C105.236 14.648 105.58 15.336 105.788 16.12C106.012 16.888 106.124 17.696 106.124 18.544V19.6H98.036V19.792C98.036 20.624 98.26 21.288 98.708 21.784C99.156 22.264 99.86 22.504 100.82 22.504C101.556 22.504 102.156 22.36 102.62 22.072C103.084 21.768 103.516 21.408 103.916 20.992L105.692 23.2C105.132 23.856 104.396 24.368 103.484 24.736C102.588 25.104 101.564 25.288 100.412 25.288ZM100.34 14.728C99.62 14.728 99.052 14.968 98.636 15.448C98.236 15.912 98.036 16.536 98.036 17.32V17.512H102.452V17.296C102.452 16.528 102.276 15.912 101.924 15.448C101.588 14.968 101.06 14.728 100.34 14.728ZM108.633 25V12.4H112.185V15.136H112.305C112.369 14.784 112.481 14.448 112.641 14.128C112.801 13.792 113.009 13.496 113.265 13.24C113.537 12.984 113.857 12.784 114.225 12.64C114.593 12.48 115.025 12.4 115.521 12.4H116.145V15.712H115.257C114.217 15.712 113.441 15.848 112.929 16.12C112.433 16.392 112.185 16.896 112.185 17.632V25H108.633ZM123.331 25.288C122.403 25.288 121.571 25.136 120.835 24.832C120.115 24.528 119.499 24.088 118.987 23.512C118.491 22.936 118.107 22.24 117.835 21.424C117.563 20.608 117.427 19.696 117.427 18.688C117.427 17.68 117.563 16.768 117.835 15.952C118.107 15.136 118.491 14.448 118.987 13.888C119.499 13.312 120.115 12.872 120.835 12.568C121.571 12.264 122.403 12.112 123.331 12.112C124.259 12.112 125.083 12.264 125.803 12.568C126.539 12.872 127.155 13.312 127.651 13.888C128.163 14.448 128.555 15.136 128.827 15.952C129.099 16.768 129.234 17.68 129.234 18.688C129.234 19.696 129.099 20.608 128.827 21.424C128.555 22.24 128.163 22.936 127.651 23.512C127.155 24.088 126.539 24.528 125.803 24.832C125.083 25.136 124.259 25.288 123.331 25.288ZM123.331 22.48C124.035 22.48 124.579 22.264 124.963 21.832C125.347 21.4 125.539 20.784 125.539 19.984V17.416C125.539 16.616 125.347 16 124.963 15.568C124.579 15.136 124.035 14.92 123.331 14.92C122.627 14.92 122.083 15.136 121.699 15.568C121.315 16 121.123 16.616 121.123 17.416V19.984C121.123 20.784 121.315 21.4 121.699 21.832C122.083 22.264 122.627 22.48 123.331 22.48ZM131.765 12.4H135.317V14.512H135.437C135.613 13.808 136.013 13.232 136.637 12.784C137.277 12.336 138.005 12.112 138.821 12.112C140.421 12.112 141.629 12.672 142.445 13.792C143.261 14.912 143.669 16.544 143.669 18.688C143.669 20.832 143.261 22.472 142.445 23.608C141.629 24.728 140.421 25.288 138.821 25.288C138.405 25.288 138.013 25.224 137.645 25.096C137.277 24.984 136.941 24.824 136.637 24.616C136.349 24.392 136.101 24.136 135.893 23.848C135.685 23.544 135.533 23.224 135.437 22.888H135.317V29.8H131.765V12.4ZM137.645 22.408C138.317 22.408 138.869 22.176 139.301 21.712C139.749 21.232 139.973 20.592 139.973 19.792V17.608C139.973 16.808 139.749 16.176 139.301 15.712C138.869 15.232 138.317 14.992 137.645 14.992C136.973 14.992 136.413 15.16 135.965 15.496C135.533 15.816 135.317 16.264 135.317 16.84V20.56C135.317 21.136 135.533 21.592 135.965 21.928C136.413 22.248 136.973 22.408 137.645 22.408ZM150.639 25.288C149.423 25.288 148.399 25.096 147.567 24.712C146.735 24.312 145.991 23.752 145.335 23.032L147.423 20.92C147.871 21.416 148.367 21.808 148.911 22.096C149.455 22.384 150.071 22.528 150.759 22.528C151.463 22.528 151.951 22.424 152.223 22.216C152.495 21.992 152.631 21.696 152.631 21.328C152.631 20.736 152.207 20.384 151.359 20.272L149.991 20.104C147.159 19.752 145.743 18.456 145.743 16.216C145.743 15.608 145.855 15.056 146.079 14.56C146.319 14.048 146.647 13.616 147.063 13.264C147.495 12.896 148.007 12.616 148.599 12.424C149.207 12.216 149.887 12.112 150.639 12.112C151.295 12.112 151.871 12.16 152.367 12.256C152.879 12.336 153.327 12.464 153.711 12.64C154.111 12.8 154.471 13.008 154.791 13.264C155.127 13.504 155.455 13.776 155.775 14.08L153.735 16.168C153.335 15.768 152.879 15.456 152.367 15.232C151.871 14.992 151.359 14.872 150.831 14.872C150.223 14.872 149.791 14.968 149.535 15.16C149.279 15.352 149.151 15.608 149.151 15.928C149.151 16.264 149.239 16.528 149.415 16.72C149.607 16.896 149.959 17.024 150.471 17.104L151.887 17.296C154.655 17.664 156.039 18.928 156.039 21.088C156.039 21.696 155.911 22.256 155.655 22.768C155.399 23.28 155.031 23.728 154.551 24.112C154.087 24.48 153.519 24.768 152.847 24.976C152.191 25.184 151.455 25.288 150.639 25.288Z" fill="#0055FF"/>
<path d="M29.6756 6.79812V24.8731C29.6756 28.6321 26.6365 31.6712 22.8775 31.6712H6.88192C3.12296 31.6712 0.0838013 28.6321 0.0838013 24.8731V6.79812C0.0838013 3.03916 3.12296 0 6.88192 0H22.7975C26.6364 0 29.6756 3.03916 29.6756 6.79812Z" fill="#0055FF"/>
<path d="M23.1967 11.3563H21.1173C20.7174 10.7164 20.3175 10.2366 19.8376 9.83667C19.3578 9.43679 18.8779 9.19685 18.398 8.95692V6.79752C18.9579 6.95747 19.4378 7.1974 19.9176 7.51732C21.3572 8.39707 22.4769 9.67672 23.1967 11.3563Z" fill="white"/>
<path d="M10.9606 9.03676C11.1206 8.95678 11.2805 8.8768 11.3605 8.79682V6.63742C11.2006 6.7174 11.0406 6.7174 10.8807 6.79738C9.76097 7.27724 8.72126 7.91707 7.8415 8.79682C6.96174 9.67658 6.32192 10.7163 5.84205 11.836C5.36219 13.0356 5.12225 14.3153 5.12225 15.7549C5.12225 17.1945 5.36219 18.4741 5.84205 19.6738C6.32192 20.8735 6.96174 21.9132 7.8415 22.7929C8.72126 23.6727 9.68099 24.3125 10.8807 24.7924C11.0406 24.8724 11.2006 24.9524 11.3605 24.9524V22.7929C11.2006 22.713 11.0406 22.633 10.9606 22.553C9.84095 21.9132 9.04117 21.0334 8.40134 19.8338C7.76152 18.6341 7.44161 17.2745 7.44161 15.6749C7.44161 14.0754 7.76152 12.6358 8.40134 11.5161C9.04117 10.5563 9.92092 9.5966 10.9606 9.03676Z" fill="white"/>
<path d="M23.4366 19.9132C22.6369 21.7527 21.5172 23.1923 19.9976 24.152C19.5177 24.4719 18.9579 24.7119 18.398 24.9518V22.7924C18.9579 22.5525 19.4378 22.1526 19.9976 21.7527C20.5574 21.2728 21.0373 20.633 21.4372 19.9932H23.4366V19.9132Z" fill="white"/>
<path d="M16.0001 8.15655V23.5123C16.48 23.4323 17.0398 23.2724 17.5197 23.1124C17.5997 23.1124 17.6796 23.0324 17.7596 23.0324V25.1119C16.7999 25.4318 15.7602 25.5117 14.6405 25.5117C13.6808 25.5117 12.801 25.4318 12.0012 25.1918V23.1924C12.5611 23.4323 13.1209 23.5123 13.7607 23.5923V8.15655C13.1209 8.23653 12.5611 8.39648 12.0012 8.55644V6.47702C12.801 6.23708 13.7607 6.1571 14.6405 6.1571C15.7602 6.1571 16.7999 6.31706 17.7596 6.55699V8.63642C17.6796 8.55644 17.5197 8.55644 17.4397 8.47646C16.9598 8.39648 16.48 8.23653 16.0001 8.15655Z" fill="white"/>
</svg>
