<svg width="283" height="82" viewBox="0 0 283 82" fill="none" xmlns="http://www.w3.org/2000/svg">
<path d="M114.768 54.922C112.997 54.922 111.4 54.6476 109.979 54.0988C108.557 53.5251 107.347 52.6895 106.349 51.592C105.351 50.4695 104.578 49.0851 104.029 47.4388C103.481 45.7675 103.206 43.8219 103.206 41.6019C103.206 39.4068 103.481 37.4611 104.029 35.7649C104.578 34.0438 105.351 32.6095 106.349 31.4621C107.347 30.2897 108.557 29.4042 109.979 28.8055C111.4 28.2069 112.997 27.9075 114.768 27.9075C117.187 27.9075 119.183 28.4064 120.754 29.4042C122.326 30.377 123.586 31.9235 124.533 34.0438L119.632 36.5881C119.283 35.4905 118.734 34.6175 117.986 33.969C117.262 33.2955 116.19 32.9587 114.768 32.9587C113.097 32.9587 111.75 33.5075 110.727 34.605C109.729 35.6776 109.23 37.2491 109.23 39.3195V43.5101C109.23 45.5804 109.729 47.1644 110.727 48.2619C111.75 49.3345 113.097 49.8708 114.768 49.8708C116.165 49.8708 117.275 49.4967 118.098 48.7483C118.946 47.9751 119.57 47.0521 119.969 45.9795L124.608 48.6735C123.635 50.669 122.351 52.2156 120.754 53.3131C119.183 54.3857 117.187 54.922 114.768 54.922ZM136.483 54.922C134.986 54.922 133.652 54.685 132.479 54.2111C131.307 53.7122 130.309 53.0262 129.486 52.1532C128.688 51.2552 128.077 50.1701 127.653 48.898C127.254 47.6259 127.054 46.204 127.054 44.6326C127.054 43.086 127.254 41.6892 127.653 40.442C128.052 39.1698 128.638 38.0847 129.411 37.1867C130.209 36.2888 131.182 35.6028 132.33 35.1289C133.477 34.63 134.787 34.3805 136.258 34.3805C137.88 34.3805 139.264 34.6549 140.412 35.2037C141.584 35.7525 142.532 36.4883 143.255 37.4112C144.004 38.3342 144.54 39.4068 144.864 40.629C145.213 41.8263 145.388 43.086 145.388 44.4081V46.0544H132.779V46.3537C132.779 47.6508 133.128 48.686 133.826 49.4592C134.525 50.2076 135.622 50.5817 137.119 50.5817C138.266 50.5817 139.202 50.3572 139.925 49.9082C140.649 49.4343 141.322 48.8731 141.946 48.2245L144.714 51.6668C143.841 52.6895 142.694 53.4877 141.272 54.0614C139.875 54.6351 138.279 54.922 136.483 54.922ZM136.371 38.4589C135.248 38.4589 134.363 38.8331 133.714 39.5814C133.09 40.3048 132.779 41.2776 132.779 42.4998V42.7992H139.663V42.4624C139.663 41.2651 139.389 40.3048 138.84 39.5814C138.316 38.8331 137.493 38.4589 136.371 38.4589ZM149.299 54.473V34.8295H154.836V38.1596H155.061C155.41 37.1369 156.021 36.2513 156.894 35.503C157.767 34.7547 158.977 34.3805 160.524 34.3805C162.544 34.3805 164.066 35.054 165.088 36.401C166.136 37.748 166.66 39.6687 166.66 42.1631V54.473H161.122V42.6121C161.122 41.3399 160.923 40.4045 160.524 39.8059C160.125 39.1823 159.414 38.8705 158.391 38.8705C157.942 38.8705 157.505 38.9328 157.081 39.0576C156.657 39.1573 156.271 39.3319 155.921 39.5814C155.597 39.8308 155.335 40.1426 155.136 40.5168C154.936 40.866 154.836 41.2776 154.836 41.7515V54.473H149.299ZM178.472 54.473C176.552 54.473 175.092 53.9866 174.095 53.0138C173.122 52.041 172.635 50.6191 172.635 48.7483V39.1324H169.867V34.8295H171.251C171.999 34.8295 172.511 34.6549 172.785 34.3057C173.059 33.9315 173.197 33.4077 173.197 32.7342V29.5164H178.173V34.8295H182.064V39.1324H178.173V50.1701H181.765V54.473H178.472ZM193.959 54.922C192.462 54.922 191.128 54.685 189.956 54.2111C188.783 53.7122 187.785 53.0262 186.962 52.1532C186.164 51.2552 185.553 50.1701 185.129 48.898C184.73 47.6259 184.53 46.204 184.53 44.6326C184.53 43.086 184.73 41.6892 185.129 40.442C185.528 39.1698 186.114 38.0847 186.887 37.1867C187.686 36.2888 188.658 35.6028 189.806 35.1289C190.953 34.63 192.263 34.3805 193.735 34.3805C195.356 34.3805 196.74 34.6549 197.888 35.2037C199.06 35.7525 200.008 36.4883 200.731 37.4112C201.48 38.3342 202.016 39.4068 202.34 40.629C202.689 41.8263 202.864 43.086 202.864 44.4081V46.0544H190.255V46.3537C190.255 47.6508 190.604 48.686 191.303 49.4592C192.001 50.2076 193.098 50.5817 194.595 50.5817C195.743 50.5817 196.678 50.3572 197.401 49.9082C198.125 49.4343 198.798 48.8731 199.422 48.2245L202.191 51.6668C201.318 52.6895 200.17 53.4877 198.748 54.0614C197.351 54.6351 195.755 54.922 193.959 54.922ZM193.847 38.4589C192.724 38.4589 191.839 38.8331 191.19 39.5814C190.567 40.3048 190.255 41.2776 190.255 42.4998V42.7992H197.139V42.4624C197.139 41.2651 196.865 40.3048 196.316 39.5814C195.792 38.8331 194.969 38.4589 193.847 38.4589ZM206.775 54.473V34.8295H212.313V39.095H212.5C212.599 38.5462 212.774 38.0224 213.023 37.5235C213.273 36.9997 213.597 36.5382 213.996 36.1391C214.42 35.74 214.919 35.4282 215.493 35.2037C216.067 34.9542 216.74 34.8295 217.513 34.8295H218.486V39.993H217.102C215.48 39.993 214.271 40.205 213.472 40.629C212.699 41.0531 212.313 41.8388 212.313 42.9862V54.473H206.775ZM229.689 54.922C228.242 54.922 226.945 54.685 225.798 54.2111C224.675 53.7372 223.715 53.0512 222.917 52.1532C222.144 51.2552 221.545 50.1701 221.121 48.898C220.697 47.6259 220.485 46.204 220.485 44.6326C220.485 43.0611 220.697 41.6393 221.121 40.3671C221.545 39.095 222.144 38.0224 222.917 37.1493C223.715 36.2513 224.675 35.5654 225.798 35.0914C226.945 34.6175 228.242 34.3805 229.689 34.3805C231.136 34.3805 232.421 34.6175 233.543 35.0914C234.69 35.5654 235.651 36.2513 236.424 37.1493C237.222 38.0224 237.833 39.095 238.257 40.3671C238.681 41.6393 238.894 43.0611 238.894 44.6326C238.894 46.204 238.681 47.6259 238.257 48.898C237.833 50.1701 237.222 51.2552 236.424 52.1532C235.651 53.0512 234.69 53.7372 233.543 54.2111C232.421 54.685 231.136 54.922 229.689 54.922ZM229.689 50.5443C230.787 50.5443 231.635 50.2076 232.233 49.5341C232.832 48.8606 233.131 47.9002 233.131 46.653V42.6495C233.131 41.4023 232.832 40.442 232.233 39.7685C231.635 39.095 230.787 38.7582 229.689 38.7582C228.592 38.7582 227.744 39.095 227.145 39.7685C226.546 40.442 226.247 41.4023 226.247 42.6495V46.653C226.247 47.9002 226.546 48.8606 227.145 49.5341C227.744 50.2076 228.592 50.5443 229.689 50.5443ZM242.839 34.8295H248.377V38.1221H248.564C248.838 37.0246 249.462 36.1266 250.435 35.4282C251.432 34.7298 252.567 34.3805 253.84 34.3805C256.334 34.3805 258.217 35.2536 259.489 36.9997C260.762 38.7458 261.398 41.2901 261.398 44.6326C261.398 47.9751 260.762 50.5318 259.489 52.3029C258.217 54.049 256.334 54.922 253.84 54.922C253.191 54.922 252.58 54.8222 252.006 54.6227C251.432 54.4481 250.909 54.1986 250.435 53.8743C249.986 53.5251 249.599 53.126 249.275 52.677C248.95 52.2031 248.714 51.7042 248.564 51.1804H248.377V61.9562H242.839V34.8295ZM252.006 50.4321C253.054 50.4321 253.914 50.0704 254.588 49.347C255.286 48.5987 255.635 47.6009 255.635 46.3537V42.9488C255.635 41.7016 255.286 40.7163 254.588 39.993C253.914 39.2446 253.054 38.8705 252.006 38.8705C250.958 38.8705 250.085 39.1324 249.387 39.6562C248.714 40.1551 248.377 40.8535 248.377 41.7515V47.551C248.377 48.449 248.714 49.1599 249.387 49.6837C250.085 50.1826 250.958 50.4321 252.006 50.4321ZM272.263 54.922C270.367 54.922 268.771 54.6227 267.474 54.024C266.177 53.4004 265.017 52.5274 263.994 51.4049L267.249 48.1123C267.948 48.8855 268.721 49.4967 269.569 49.9457C270.417 50.3946 271.378 50.6191 272.45 50.6191C273.548 50.6191 274.309 50.457 274.733 50.1327C275.157 49.7835 275.369 49.3221 275.369 48.7483C275.369 47.8254 274.708 47.2766 273.386 47.102L271.253 46.8401C266.838 46.2913 264.63 44.2709 264.63 40.7787C264.63 39.8308 264.805 38.9702 265.154 38.197C265.528 37.3988 266.04 36.7253 266.688 36.1765C267.362 35.6028 268.16 35.1663 269.083 34.8669C270.031 34.5427 271.091 34.3805 272.263 34.3805C273.286 34.3805 274.184 34.4554 274.957 34.605C275.755 34.7298 276.454 34.9293 277.052 35.2037C277.676 35.4531 278.237 35.7774 278.736 36.1765C279.26 36.5507 279.771 36.9747 280.27 37.4487L277.09 40.7039C276.466 40.0803 275.755 39.5939 274.957 39.2446C274.184 38.8705 273.386 38.6834 272.563 38.6834C271.615 38.6834 270.941 38.8331 270.542 39.1324C270.143 39.4317 269.943 39.8308 269.943 40.3297C269.943 40.8535 270.081 41.2651 270.355 41.5644C270.654 41.8388 271.203 42.0384 272.001 42.1631L274.209 42.4624C278.524 43.0361 280.682 45.0067 280.682 48.3742C280.682 49.3221 280.482 50.1951 280.083 50.9933C279.684 51.7915 279.11 52.49 278.362 53.0886C277.639 53.6623 276.753 54.1113 275.705 54.4356C274.683 54.7599 273.535 54.922 272.263 54.922Z" fill="white"/>
<rect opacity="0.2" width="74.8323" height="74.8323" rx="37.4161" fill="white"/>
<rect x="32.7391" y="31.1801" width="49.8882" height="49.8882" rx="24.9441" fill="white"/>
</svg>
